<?xml version="1.0" encoding="UTF-8"?>
<!-- Generator: visioncortex VTracer 0.6.4 -->
<svg version="1.1" xmlns="http://www.w3.org/2000/svg" width="2000" height="2000">
<path d="M0 0 C660 0 1320 0 2000 0 C2000 660 2000 1320 2000 2000 C1340 2000 680 2000 0 2000 C0 1340 0 680 0 0 Z " fill="#FEFEFE" transform="translate(0,0)"/>
<path d="M0 0 C4.85 3.07 9.15 6.72 13.43 10.54 C14.19 11.21 14.95 11.89 15.74 12.59 C48.36 43.41 59.83 91.96 66.43 134.54 C66.55 135.27 66.66 136 66.78 136.75 C74.37 185.72 63.33 239.99 49.48 286.95 C48.75 289.43 48.04 291.91 47.34 294.4 C46.81 296.26 46.81 296.26 46.28 298.16 C45.97 299.26 45.66 300.37 45.34 301.51 C44.28 305.05 42.99 308.43 41.56 311.83 C40.67 313.97 39.82 316.11 38.98 318.27 C38.73 318.94 38.47 319.6 38.21 320.28 C37.7 321.58 37.2 322.88 36.71 324.18 C35.07 328.37 32.92 331.82 30.43 335.54 C29.35 337.43 29.35 337.43 29.43 339.54 C30.36 341.9 31.34 344.04 32.49 346.29 C37.97 357.53 42.17 368.84 45.24 380.97 C45.45 381.79 45.66 382.61 45.87 383.45 C47.87 391.71 48.62 399.86 48.68 408.35 C48.7 409.05 48.72 409.74 48.74 410.46 C48.88 430.72 42.62 450.71 37.58 470.15 C36.8 473.17 36.02 476.19 35.25 479.21 C34.32 482.88 33.38 486.55 32.43 490.21 C32.26 490.89 32.09 491.56 31.91 492.26 C25.36 517.74 25.36 517.74 23.3 521.71 C21.81 524.82 22.63 527.28 23.43 530.54 C25.13 533.35 25.13 533.35 27.43 535.85 C28.25 536.79 29.06 537.74 29.91 538.71 C30.74 539.65 31.57 540.58 32.43 541.54 C33.16 542.36 33.89 543.19 34.64 544.04 C36.88 546.56 39.15 549.05 41.43 551.54 C42.28 552.47 43.14 553.41 44.02 554.37 C47.82 558.53 51.63 562.68 55.48 566.8 C61.74 573.51 67.69 580.37 73.43 587.54 C74.48 588.82 75.54 590.11 76.59 591.39 C129.1 655.32 155.8 731.39 167.43 812.54 C167.6 813.65 167.76 814.77 167.93 815.92 C171.22 838.03 174.15 861.97 163.43 882.54 C162.04 879.85 160.85 877.16 159.77 874.33 C155.77 864.03 151.49 854.04 146.33 844.26 C145.5 842.67 144.69 841.08 143.88 839.49 C138.67 829.52 131.98 820.84 124.43 812.54 C125.04 819.11 126.19 825.36 127.68 831.79 C129.72 840.94 131.54 850.12 133.18 859.35 C133.39 860.49 133.6 861.63 133.82 862.81 C136.58 878.7 136.61 894.76 136.55 910.85 C136.55 912.13 136.55 912.13 136.55 913.45 C136.38 968.38 128.46 1022.86 112.14 1075.41 C109.66 1083.66 108.29 1092.17 106.83 1100.65 C106.43 1102.54 106.43 1102.54 105.43 1104.54 C104.77 1104.54 104.11 1104.54 103.43 1104.54 C103.4 1102.87 103.38 1101.2 103.37 1099.54 C103.36 1098.61 103.34 1097.68 103.33 1096.72 C103.43 1093.54 103.43 1093.54 103.92 1090.1 C104.7 1084.26 104.62 1078.39 104.61 1072.51 C104.62 1070.5 104.64 1068.49 104.65 1066.48 C104.68 1052.17 102.73 1039.04 98.3 1025.41 C97.91 1024.16 97.51 1022.91 97.1 1021.62 C91.76 1005 85.76 988.9 77.43 973.54 C76.57 971.94 76.57 971.94 75.69 970.3 C72.7 964.98 69.4 960.05 65.71 955.18 C65.29 954.63 64.88 954.08 64.45 953.52 C63.45 952.19 62.44 950.86 61.43 949.54 C61.36 950.38 61.29 951.22 61.22 952.09 C58.47 984.62 53.49 1015.67 42.43 1046.54 C42.2 1047.17 41.98 1047.8 41.74 1048.45 C40.04 1053.18 38.25 1057.86 36.43 1062.54 C36.08 1063.43 35.74 1064.33 35.38 1065.25 C30.33 1078.32 24.89 1091.14 18.91 1103.82 C14.85 1112.48 11.15 1121.25 7.64 1130.15 C7.26 1131.09 6.88 1132.03 6.49 1133 C6.16 1133.83 5.83 1134.66 5.5 1135.52 C4.43 1137.54 4.43 1137.54 1.43 1139.54 C1.86 1132.77 2.46 1126.11 3.49 1119.41 C4.76 1110.46 4.6 1101.56 4.43 1092.54 C4.08 1093.43 3.72 1094.32 3.36 1095.23 C-5.37 1116.9 -15.27 1138.06 -25.26 1159.16 C-25.65 1159.99 -26.04 1160.81 -26.44 1161.66 C-31.81 1173.04 -37.48 1184.21 -43.4 1195.32 C-45.19 1198.7 -46.94 1202.1 -48.7 1205.5 C-49.02 1206.13 -49.34 1206.76 -49.68 1207.41 C-50.64 1209.28 -51.61 1211.16 -52.57 1213.04 C-53.86 1215.55 -55.15 1218.06 -56.45 1220.57 C-56.77 1221.2 -57.1 1221.83 -57.43 1222.48 C-59.67 1226.82 -61.94 1231.14 -64.23 1235.45 C-69.57 1245.54 -74.7 1255.71 -79.7 1265.97 C-80.1 1266.79 -80.5 1267.61 -80.91 1268.46 C-87.8 1282.59 -94.31 1296.86 -100.58 1311.28 C-100.9 1312 -101.21 1312.72 -101.54 1313.46 C-102.12 1314.8 -102.7 1316.14 -103.28 1317.48 C-104.81 1320.99 -106.38 1324.38 -108.57 1327.54 C-109.23 1327.54 -109.89 1327.54 -110.57 1327.54 C-110.48 1325.72 -110.48 1325.72 -110.39 1323.88 C-109.94 1314.45 -109.56 1305.02 -109.35 1295.59 C-109.33 1294.81 -109.32 1294.02 -109.3 1293.22 C-109.26 1291.59 -109.23 1289.97 -109.19 1288.34 C-108.87 1274.12 -108.32 1259.95 -107.44 1245.76 C-106.19 1225.37 -105.91 1204.95 -105.57 1184.54 C-106.23 1184.54 -106.89 1184.54 -107.57 1184.54 C-107.81 1185.36 -108.06 1186.19 -108.31 1187.04 C-109.78 1191.11 -111.69 1194.74 -113.76 1198.54 C-114.57 1200.06 -115.39 1201.59 -116.2 1203.11 C-117.61 1205.76 -119.04 1208.39 -120.47 1211.02 C-126.87 1223.15 -131.48 1236.37 -134.15 1249.83 C-134.57 1251.54 -134.57 1251.54 -135.57 1252.54 C-137.9 1252.58 -140.24 1252.58 -142.57 1252.54 C-146.24 1246.11 -147.59 1240.32 -148.63 1233.04 C-148.96 1230.9 -149.29 1228.77 -149.62 1226.64 C-149.86 1225.08 -149.86 1225.08 -150.1 1223.5 C-150.94 1218.2 -152 1212.94 -153.05 1207.68 C-153.51 1204.89 -153.68 1202.36 -153.57 1199.54 C-154.23 1199.54 -154.89 1199.54 -155.57 1199.54 C-155.65 1200.45 -155.73 1201.36 -155.82 1202.3 C-156.63 1207.89 -158.68 1213.07 -160.63 1218.35 C-161.07 1219.52 -161.5 1220.69 -161.95 1221.9 C-167.05 1235.3 -173.29 1248.15 -179.49 1261.07 C-183.75 1269.95 -187.77 1278.94 -191.79 1287.92 C-194.52 1294.01 -197.28 1300.09 -200.12 1306.13 C-210.75 1328.8 -219.88 1352.06 -228.57 1375.54 C-228.98 1376.65 -229.4 1377.76 -229.82 1378.91 C-234.65 1392.05 -238.54 1405.28 -241.9 1418.87 C-242.61 1421.68 -243.36 1424.47 -244.13 1427.26 C-245.27 1431.4 -246.31 1435.54 -247.26 1439.72 C-247.51 1440.83 -247.76 1441.94 -248.02 1443.08 C-248.2 1443.89 -248.38 1444.7 -248.57 1445.54 C-249.23 1445.54 -249.89 1445.54 -250.57 1445.54 C-250.67 1444.73 -250.76 1443.93 -250.86 1443.1 C-254.05 1407.07 -254.05 1407.07 -271.57 1376.54 C-272.23 1376.54 -272.89 1376.54 -273.57 1376.54 C-273.96 1377.26 -274.34 1377.99 -274.74 1378.74 C-281.87 1392.16 -289.06 1405.54 -296.58 1418.74 C-299.58 1423.99 -302.54 1429.27 -305.45 1434.57 C-305.94 1435.47 -305.94 1435.47 -306.45 1436.4 C-307.81 1438.88 -309.17 1441.35 -310.53 1443.83 C-315.24 1452.42 -320.09 1460.91 -325.07 1469.35 C-330.31 1478.24 -335.12 1487.23 -339.57 1496.54 C-340.57 1498.54 -341.57 1500.54 -342.57 1502.54 C-343.23 1502.54 -343.89 1502.54 -344.57 1502.54 C-344.9 1493.96 -345.23 1485.38 -345.57 1476.54 C-355.15 1495.99 -364.17 1515.64 -372.9 1535.49 C-374.67 1539.53 -376.48 1543.55 -378.34 1547.56 C-382.51 1556.6 -386.2 1565.62 -389.28 1575.09 C-390.59 1579.06 -391.71 1582.38 -394.57 1585.54 C-395.59 1581.61 -395.43 1578.76 -394.7 1574.79 C-393.41 1566.66 -393.15 1558.55 -392.91 1550.33 C-392.75 1544.99 -392.48 1539.81 -391.57 1534.54 C-398.62 1543.08 -405.52 1551.7 -412.11 1560.59 C-416.03 1565.86 -420.09 1570.99 -424.21 1576.1 C-428.68 1581.65 -433.03 1587.28 -437.35 1592.94 C-439 1595.1 -440.66 1597.25 -442.31 1599.4 C-443.15 1600.49 -443.99 1601.58 -444.83 1602.67 C-446.86 1605.31 -448.89 1607.95 -450.93 1610.57 C-453.49 1613.88 -456.04 1617.21 -458.57 1620.54 C-459.06 1621.18 -459.56 1621.83 -460.07 1622.49 C-481.9 1651.12 -500.17 1681.97 -517.05 1713.71 C-519.18 1717.68 -521.37 1721.61 -523.57 1725.54 C-526.07 1723.29 -527.39 1721.17 -528.78 1718.12 C-529.19 1717.23 -529.61 1716.34 -530.03 1715.42 C-530.48 1714.44 -530.92 1713.47 -531.38 1712.47 C-550.27 1672.24 -575.01 1636.27 -601.34 1600.64 C-605.83 1594.56 -610.26 1588.45 -614.67 1582.31 C-618.06 1577.6 -621.49 1572.93 -624.96 1568.27 C-632.6 1557.99 -640.05 1547.58 -646.57 1536.54 C-648.98 1538.94 -648.64 1544.36 -649.07 1547.6 C-649.2 1548.61 -649.34 1549.63 -649.48 1550.67 C-650.87 1561.93 -651.3 1573.2 -651.57 1584.54 C-652.23 1584.54 -652.89 1584.54 -653.57 1584.54 C-653.79 1583.68 -654.01 1582.82 -654.23 1581.93 C-656.17 1574.73 -658.47 1568.17 -661.71 1561.43 C-664.03 1556.62 -666.17 1551.74 -668.32 1546.85 C-668.77 1545.83 -669.22 1544.8 -669.68 1543.75 C-672.87 1536.49 -676 1529.21 -679.11 1521.93 C-679.51 1521 -679.9 1520.07 -680.31 1519.11 C-682.31 1514.43 -684.3 1509.76 -686.29 1505.08 C-689.83 1496.77 -693.38 1488.54 -697.57 1480.54 C-697.9 1487.14 -698.23 1493.74 -698.57 1500.54 C-699.23 1500.87 -699.89 1501.2 -700.57 1501.54 C-700.79 1500.86 -701.01 1500.19 -701.24 1499.5 C-707.11 1483.04 -716.26 1467.85 -724.65 1452.58 C-729.37 1443.96 -733.97 1435.28 -738.57 1426.6 C-738.96 1425.87 -739.35 1425.14 -739.74 1424.38 C-743.58 1417.14 -747.4 1409.89 -751.14 1402.59 C-751.68 1401.56 -752.21 1400.52 -752.76 1399.45 C-753.71 1397.59 -754.66 1395.73 -755.6 1393.86 C-758.76 1387.7 -762.48 1382.12 -766.57 1376.54 C-771.03 1380.46 -773.25 1384.35 -775.57 1389.79 C-775.91 1390.57 -776.26 1391.36 -776.61 1392.17 C-779.97 1400.11 -782.34 1408.22 -784.57 1416.54 C-784.87 1417.5 -785.16 1418.46 -785.47 1419.45 C-787.62 1426.51 -788.4 1433.59 -789.14 1440.91 C-789.57 1444.54 -789.57 1444.54 -790.57 1447.54 C-791.56 1447.21 -792.55 1446.88 -793.57 1446.54 C-793.65 1445.77 -793.72 1445 -793.8 1444.21 C-795.13 1432.92 -798.17 1422.36 -801.57 1411.54 C-801.77 1410.89 -801.97 1410.25 -802.18 1409.59 C-808.85 1388.35 -816.34 1367.81 -825.57 1347.54 C-826.08 1346.41 -826.58 1345.28 -827.1 1344.12 C-831.95 1333.32 -836.89 1322.59 -842.51 1312.16 C-854.93 1289.05 -864.99 1264.77 -874.35 1240.29 C-881.21 1217.47 -881.21 1217.47 -894.57 1199.54 C-894.6 1200.52 -894.62 1201.5 -894.65 1202.52 C-895.25 1218.86 -898.69 1234.69 -902.57 1250.54 C-904.88 1251.22 -904.88 1251.22 -907.57 1251.54 C-912.87 1247.68 -914.64 1240.5 -916.2 1234.47 C-920.89 1217.36 -929.14 1201.48 -938.57 1186.54 C-938.23 1204.04 -937.44 1221.45 -936.07 1238.91 C-934.65 1257.12 -933.83 1275.27 -933.57 1293.54 C-933.56 1294.24 -933.55 1294.95 -933.54 1295.68 C-933.47 1299.94 -933.42 1304.21 -933.4 1308.47 C-933.38 1310.42 -933.36 1312.38 -933.34 1314.34 C-933.34 1315.5 -933.34 1316.67 -933.34 1317.88 C-933.34 1318.9 -933.33 1319.92 -933.33 1320.98 C-933.57 1323.54 -933.57 1323.54 -935.57 1326.54 C-940.5 1317.11 -944.71 1307.42 -948.91 1297.65 C-959.24 1273.73 -970.79 1250.93 -984.06 1228.5 C-1002.87 1196.65 -1019.13 1163.92 -1033.32 1129.79 C-1038.72 1116.81 -1044.7 1104.2 -1052.57 1092.54 C-1052.45 1097.6 -1052.33 1102.67 -1052.2 1107.74 C-1052.16 1109.46 -1052.11 1111.18 -1052.07 1112.9 C-1051.86 1122.14 -1051.63 1131.34 -1050.57 1140.54 C-1051.56 1140.54 -1052.55 1140.54 -1053.57 1140.54 C-1062.85 1122.52 -1071.72 1104.64 -1078.57 1085.54 C-1078.99 1084.39 -1079.4 1083.24 -1079.83 1082.06 C-1082.38 1075.02 -1084.89 1067.97 -1087.38 1060.9 C-1088.2 1058.59 -1089.03 1056.29 -1089.87 1053.98 C-1092.51 1046.76 -1094.78 1039.56 -1096.63 1032.1 C-1097.14 1030.1 -1097.65 1028.1 -1098.16 1026.1 C-1098.4 1025.15 -1098.64 1024.19 -1098.89 1023.21 C-1099.8 1019.64 -1100.78 1016.09 -1101.76 1012.54 C-1107.54 990.65 -1109.71 968.12 -1110.57 945.54 C-1136.32 983.13 -1150.73 1028.39 -1150.76 1073.91 C-1150.76 1075.16 -1150.76 1076.42 -1150.76 1077.71 C-1150.73 1083.13 -1150.52 1088.19 -1149.57 1093.54 C-1149.51 1095.49 -1149.48 1097.45 -1149.51 1099.41 C-1149.52 1100.38 -1149.53 1101.34 -1149.54 1102.34 C-1149.55 1103.06 -1149.56 1103.79 -1149.57 1104.54 C-1150.23 1104.54 -1150.89 1104.54 -1151.57 1104.54 C-1151.86 1103.46 -1152.16 1102.38 -1152.46 1101.28 C-1156.35 1087.26 -1160.72 1073.41 -1165.17 1059.57 C-1167.68 1051.71 -1170.1 1043.84 -1172.32 1035.89 C-1172.52 1035.18 -1172.71 1034.47 -1172.92 1033.73 C-1177.97 1015.32 -1180.7 996.44 -1183.29 977.55 C-1183.55 975.68 -1183.82 973.81 -1184.08 971.93 C-1190.69 924.16 -1186.09 877.91 -1175.61 831.21 C-1174.22 824.99 -1172.89 818.77 -1171.57 812.54 C-1184.28 825.16 -1192.44 839.48 -1199.39 855.79 C-1201.74 861.27 -1204.17 866.71 -1206.57 872.16 C-1207.53 874.34 -1208.49 876.52 -1209.45 878.7 C-1209.86 879.63 -1210.27 880.56 -1210.69 881.53 C-1211.12 882.52 -1211.12 882.52 -1211.57 883.54 C-1212.23 883.54 -1212.89 883.54 -1213.57 883.54 C-1214.39 881 -1215.2 878.45 -1216.01 875.91 C-1216.24 875.2 -1216.47 874.48 -1216.71 873.75 C-1217.04 872.7 -1217.04 872.7 -1217.38 871.62 C-1217.58 870.98 -1217.79 870.34 -1218 869.69 C-1226.91 836.2 -1215.26 795.25 -1208.13 762.54 C-1207.8 761 -1207.8 761 -1207.46 759.43 C-1203.07 739.38 -1197.81 719.55 -1190.51 700.35 C-1189.92 698.74 -1189.92 698.74 -1189.31 697.1 C-1186.42 689.4 -1183.08 681.97 -1179.57 674.54 C-1178.72 672.69 -1177.88 670.85 -1177.04 669.01 C-1167.51 648.49 -1156.28 629.52 -1142.57 611.54 C-1141.86 610.59 -1141.86 610.59 -1141.13 609.63 C-1138.01 605.54 -1134.81 601.52 -1131.57 597.54 C-1130.93 596.74 -1130.93 596.74 -1130.28 595.93 C-1122.63 586.45 -1114.08 577.88 -1105.4 569.35 C-1100.78 564.8 -1096.33 560.22 -1092.11 555.3 C-1089.8 552.66 -1087.29 550.28 -1084.76 547.85 C-1074.15 538.29 -1074.15 538.29 -1068.22 525.97 C-1068.71 523.02 -1069.6 520.37 -1070.57 517.54 C-1070.93 516.1 -1071.28 514.66 -1071.61 513.21 C-1073.96 503.04 -1076.88 493.08 -1079.98 483.12 C-1082.16 476.05 -1084.05 468.95 -1085.79 461.76 C-1087.31 455.48 -1088.99 449.26 -1090.78 443.06 C-1091.4 440.89 -1091.99 438.71 -1092.57 436.54 C-1092.83 435.62 -1093.1 434.71 -1093.37 433.77 C-1095.73 424.88 -1096.06 416.38 -1096.02 407.25 C-1096.01 404.8 -1096.04 402.35 -1096.07 399.9 C-1096.15 383.54 -1092.59 369.61 -1085.95 354.66 C-1085.21 352.95 -1085.21 352.95 -1084.46 351.21 C-1080.93 343.07 -1080.93 343.07 -1078.57 339.54 C-1078.87 334.94 -1081.15 331.16 -1083.26 327.16 C-1094.03 306.07 -1100.08 283.71 -1104.57 260.54 C-1104.78 259.46 -1104.99 258.39 -1105.21 257.28 C-1113.13 215.95 -1117.7 171.41 -1111.57 129.54 C-1111.4 128.38 -1111.24 127.22 -1111.07 126.03 C-1108.88 111.26 -1106.57 96.65 -1101.57 82.54 C-1101.22 81.52 -1100.87 80.51 -1100.5 79.47 C-1089.93 49.31 -1074.95 12.81 -1044.57 -2.46 C-1028.08 -9.72 -1012.28 -6.84 -996 -0.86 C-975.23 7.57 -957.06 25.26 -940.15 39.65 C-936.82 42.49 -933.46 45.28 -930.07 48.04 C-925.46 51.78 -920.93 55.61 -916.4 59.45 C-913.01 62.33 -909.59 65.17 -906.13 67.97 C-901.27 71.93 -896.51 76 -891.76 80.09 C-887.35 83.89 -882.87 87.59 -878.35 91.26 C-875.23 93.82 -872.15 96.42 -869.07 99.04 C-865.1 102.41 -861.11 105.75 -857.07 109.04 C-852.47 112.78 -847.93 116.6 -843.41 120.45 C-839.96 123.38 -836.47 126.25 -832.95 129.1 C-828.27 132.9 -823.8 136.89 -819.37 140.98 C-817.22 142.94 -815.05 144.85 -812.85 146.75 C-808.83 150.26 -805.02 153.94 -801.25 157.72 C-800.59 158.38 -799.93 159.04 -799.25 159.72 C-797.87 161.1 -796.49 162.48 -795.11 163.87 C-793.01 165.97 -790.91 168.06 -788.81 170.15 C-787.46 171.51 -786.11 172.86 -784.75 174.22 C-784.14 174.83 -783.52 175.45 -782.88 176.08 C-773.04 185.98 -773.04 185.98 -769.28 191.4 C-767.98 193.33 -767.98 193.33 -765.57 195.54 C-762.76 195.59 -761.2 195.3 -758.57 194.54 C-756.63 194.05 -754.7 193.57 -752.76 193.1 C-751.71 192.83 -750.66 192.57 -749.59 192.29 C-734.57 188.52 -719.45 187.36 -704.01 187.29 C-702.93 187.28 -701.84 187.27 -700.73 187.26 C-689.85 187.3 -680.04 189.84 -669.63 192.77 C-668.84 192.98 -668.06 193.19 -667.25 193.41 C-666.57 193.61 -665.88 193.8 -665.18 193.99 C-658.6 195.36 -651.94 195.7 -645.24 195.77 C-644.47 195.78 -643.69 195.79 -642.9 195.8 C-640.37 195.83 -637.85 195.84 -635.32 195.85 C-634.01 195.85 -634.01 195.85 -632.67 195.86 C-614.52 195.86 -596.76 194.18 -578.78 191.82 C-575.81 191.44 -572.85 191.06 -569.88 190.69 C-563.89 189.94 -557.91 189.16 -551.93 188.37 C-549.81 188.09 -547.69 187.81 -545.57 187.54 C-544.77 187.43 -543.97 187.32 -543.14 187.21 C-512.16 183.32 -480.2 189.22 -449.57 193.56 C-447.98 193.78 -446.38 194.01 -444.79 194.23 C-443.38 194.42 -441.96 194.63 -440.55 194.83 C-435.21 195.58 -429.94 195.7 -424.55 195.7 C-423.61 195.71 -422.67 195.71 -421.7 195.71 C-419.73 195.72 -417.75 195.72 -415.77 195.72 C-412.78 195.72 -409.78 195.74 -406.79 195.76 C-393.06 195.87 -393.06 195.87 -379.57 193.54 C-378.81 193.34 -378.05 193.14 -377.27 192.93 C-375.11 192.34 -372.96 191.7 -370.82 191.04 C-368.72 190.4 -366.61 189.76 -364.51 189.14 C-362.8 188.61 -361.12 188.01 -359.44 187.4 C-353.46 186.06 -347.55 186.15 -341.45 186.16 C-340.78 186.16 -340.11 186.16 -339.43 186.16 C-325.53 186.2 -312.7 188.32 -299.31 191.95 C-298.45 192.18 -297.59 192.41 -296.71 192.65 C-295.09 193.1 -293.48 193.56 -291.87 194.05 C-287.12 195.41 -283.44 196.02 -278.57 194.54 C-276.25 192.77 -274.44 190.7 -272.57 188.47 C-271.79 187.58 -271.79 187.58 -270.99 186.68 C-269.5 184.98 -268.03 183.26 -266.57 181.54 C-265.34 180.12 -264.11 178.7 -262.88 177.29 C-262.35 176.67 -261.82 176.06 -261.27 175.43 C-256.05 169.62 -250.4 164.3 -244.47 159.21 C-242.59 157.55 -240.83 155.82 -239.07 154.04 C-236.11 151.02 -233 148.24 -229.8 145.48 C-227.19 143.2 -224.63 140.87 -222.07 138.54 C-216.57 133.53 -211.01 128.61 -205.35 123.79 C-204.15 122.77 -202.96 121.74 -201.76 120.72 C-201.15 120.21 -200.55 119.69 -199.92 119.16 C-196.18 115.95 -192.51 112.68 -188.88 109.35 C-185.39 106.14 -181.83 103.07 -178.13 100.1 C-174.14 96.88 -170.32 93.53 -166.57 90.04 C-161.96 85.75 -157.19 81.73 -152.29 77.78 C-149.46 75.45 -146.76 73.02 -144.07 70.54 C-139.6 66.42 -134.98 62.56 -130.25 58.75 C-127.62 56.58 -125.09 54.33 -122.57 52.04 C-118.35 48.19 -113.98 44.57 -109.55 40.98 C-106.22 38.25 -102.95 35.46 -99.7 32.66 C-99.1 32.15 -98.51 31.64 -97.9 31.12 C-95.03 28.66 -92.17 26.19 -89.32 23.71 C-86.11 20.94 -82.86 18.22 -79.57 15.54 C-79 15.07 -78.43 14.61 -77.85 14.13 C-54.88 -4.31 -27.87 -14.94 0 0 Z " fill="#1C1C1A" transform="translate(1524.5703125,141.46484375)"/>
<path d="M0 0 C2.12 2.66 3.63 5.13 4.9 8.27 C5.23 9.09 5.56 9.91 5.91 10.75 C6.25 11.62 6.59 12.48 6.94 13.38 C7.29 14.28 7.65 15.18 8.01 16.1 C12.11 26.68 14.95 37.26 17.12 48.38 C17.28 49.19 17.44 50 17.61 50.84 C20.13 64.4 21.38 77.72 21.31 91.5 C21.31 92.6 21.31 92.6 21.31 93.72 C21.17 127.18 13.94 159.02 -1 189 C-1.33 189 -1.66 189 -2 189 C-1.49 181 -0.84 173.02 -0.06 165.04 C0.02 164.16 0.11 163.28 0.2 162.38 C0.55 158.74 0.91 155.1 1.27 151.46 C3.31 130.78 4.17 110.43 4.13 89.64 C4.12 86.25 4.13 82.85 4.13 79.46 C4.17 61.86 4.17 61.86 3.55 44.28 C3.52 43.56 3.48 42.84 3.44 42.11 C3.25 39.19 2.93 36.79 2 34 C1.85 34.87 1.71 35.75 1.55 36.65 C-5.33 74.41 -26.95 105.79 -58.26 127.84 C-81.42 143.58 -107.87 153.57 -134.77 160.88 C-143.45 163.25 -151.22 166.76 -159.28 170.73 C-163.79 172.94 -168.39 174.84 -173.06 176.69 C-189.28 183.23 -202.69 193.23 -210.61 209.25 C-214.78 219.53 -216.11 230.79 -212.56 241.5 C-207.96 250.68 -198.89 255.52 -190.06 260 C-182.39 264.06 -175.32 267.98 -169 274 C-168.51 274.45 -168.02 274.91 -167.51 275.38 C-149.87 291.73 -136.74 311.94 -133.31 336.06 C-133.18 336.93 -133.05 337.79 -132.92 338.69 C-132.61 340.79 -132.3 342.89 -132 345 C-121.55 309.48 -129.65 263.59 -141.85 229.52 C-142.15 228.69 -142.44 227.87 -142.74 227.02 C-143.01 226.29 -143.28 225.56 -143.55 224.81 C-144 223 -144 223 -143 221 C-140.3 225.65 -137.63 230.31 -135 235 C-134.54 235.82 -134.08 236.64 -133.6 237.49 C-112.5 277.35 -110.22 327.85 -123.23 370.57 C-129.94 391.66 -139.35 411.52 -153 429 C-153.74 429.96 -154.48 430.92 -155.24 431.91 C-160.04 437.97 -165.26 443.41 -170.81 448.79 C-173.7 451.71 -174.13 453.33 -174.43 457.3 C-174.5 458.17 -174.57 459.04 -174.65 459.93 C-174.76 461.33 -174.76 461.33 -174.88 462.75 C-177.01 486.53 -183.96 508.88 -200 527 C-200.69 527.8 -201.37 528.59 -202.08 529.41 C-212.14 540.85 -222.79 550.91 -235 560 C-235.57 560.43 -236.14 560.86 -236.73 561.3 C-256.4 576.13 -283.58 592.54 -309 592 C-306.82 589.69 -304.53 587.94 -301.94 586.12 C-283.32 571.7 -273.81 546.56 -267 524.94 C-266.57 523.58 -266.14 522.23 -265.71 520.87 C-263.17 512.88 -260.71 504.87 -258.38 496.81 C-258.13 495.96 -257.88 495.12 -257.62 494.24 C-257.3 493.08 -257.3 493.08 -256.96 491.89 C-256.68 490.9 -256.68 490.9 -256.39 489.89 C-255.86 487.67 -255.86 487.67 -256 484 C-256.62 484.52 -257.24 485.04 -257.88 485.58 C-286.34 509.23 -286.34 509.23 -303.28 509.82 C-308.3 510.06 -313.1 510.95 -318 512 C-315.07 507.96 -312.11 504.08 -308.69 500.44 C-294.7 484.6 -283.04 460.01 -283.68 438.86 C-284.24 432.11 -285.45 425.59 -287 419 C-287.28 417.8 -287.56 416.6 -287.84 415.37 C-290.69 404.41 -294.74 391.08 -305 385 C-324.98 373.33 -347 370.02 -369.83 369.68 C-371.03 369.66 -372.22 369.64 -373.45 369.62 C-375.96 369.58 -378.47 369.54 -380.99 369.5 C-384.79 369.44 -388.6 369.37 -392.4 369.31 C-394.86 369.27 -397.31 369.22 -399.77 369.18 C-400.89 369.16 -402.01 369.15 -403.16 369.13 C-420.25 368.71 -420.25 368.71 -437.25 370.19 C-438.14 370.32 -439.03 370.46 -439.94 370.59 C-455.37 373.06 -477.75 377.13 -487.69 390.52 C-490.79 396.38 -492.45 402.59 -494 409 C-494.2 409.8 -494.4 410.6 -494.6 411.43 C-499.06 430.16 -501 449.04 -493 467 C-492.59 467.96 -492.18 468.92 -491.75 469.91 C-485.68 483 -477.32 495.99 -468 507 C-467.1 508.08 -466.21 509.15 -465.31 510.23 C-464.17 511.6 -464.17 511.6 -463 513 C-485.59 511.46 -501.97 506.14 -518.57 490.26 C-520.78 487.99 -520.78 487.99 -523 487 C-522.71 488.2 -522.42 489.39 -522.12 490.62 C-521.25 494.51 -520.68 498.36 -520.19 502.31 C-516.07 531.26 -504.15 564.03 -481.16 583.4 C-477.91 585.81 -474.45 587.79 -470.91 589.74 C-470.28 590.15 -469.65 590.57 -469 591 C-469 591.66 -469 592.32 -469 593 C-477.73 592.53 -486.05 591.44 -494.56 589.44 C-495.69 589.17 -496.81 588.91 -497.96 588.64 C-519.44 583.37 -538.81 573.92 -556 560 C-557.02 559.18 -558.05 558.36 -559.1 557.52 C-572.51 546.59 -584.72 534.66 -594 520 C-594.36 519.43 -594.72 518.87 -595.1 518.29 C-600.73 509.35 -604.8 500.06 -608 490 C-608.4 488.79 -608.4 488.79 -608.8 487.55 C-611.4 478.94 -611.75 470.44 -612.17 461.5 C-612.24 460.35 -612.31 459.2 -612.38 458.01 C-612.42 456.97 -612.47 455.94 -612.52 454.87 C-613.51 448.95 -617.47 445.29 -621.5 441.12 C-645.2 415.92 -659.26 383.67 -666 350 C-666.2 349.03 -666.39 348.05 -666.6 347.05 C-671.69 320.63 -670.15 292.6 -662 267 C-661.42 264.75 -660.83 262.5 -660.25 260.25 C-656.3 246.5 -649.89 233.88 -642 222 C-641 224 -641 224 -641.65 226.13 C-642 227.01 -642.35 227.89 -642.71 228.79 C-645.15 235.21 -646.91 241.71 -648.56 248.38 C-648.87 249.6 -649.17 250.82 -649.48 252.07 C-658.65 289.95 -658.38 329.18 -649 367 C-649.02 366.09 -649.02 366.09 -649.03 365.17 C-649.37 342.87 -649.37 342.87 -647 333 C-646.76 331.85 -646.51 330.7 -646.26 329.51 C-640.07 303.14 -622.88 284.49 -601.91 268.47 C-598.41 265.77 -594.95 263.02 -591.5 260.25 C-590.84 259.73 -590.18 259.21 -589.5 258.68 C-582.97 253.42 -576.61 247.57 -575 239 C-573.65 225.28 -576.37 213.45 -584.38 201.96 C-588.38 197.12 -592.65 193.67 -598.12 190.62 C-598.82 190.24 -599.52 189.85 -600.23 189.45 C-608.48 185.01 -617.13 181.94 -626 179 C-627.33 178.56 -627.33 178.56 -628.68 178.1 C-638.17 174.94 -647.68 172.01 -657.38 169.56 C-673.92 165.34 -690.24 160.28 -705.22 151.98 C-706.98 151.01 -708.75 150.08 -710.52 149.14 C-744.43 130.7 -771.01 100.87 -783 64 C-785.02 56.7 -786.25 49.52 -787 42 C-789.89 81.02 -790.06 119.83 -786.22 158.78 C-786 161.03 -785.78 163.28 -785.56 165.53 C-784.76 173.91 -784.76 173.91 -783.91 182.3 C-783.34 187.89 -782.83 193.37 -783 199 C-785.52 197.74 -785.68 196.86 -786.77 194.31 C-787.1 193.54 -787.43 192.77 -787.77 191.97 C-788.11 191.13 -788.46 190.3 -788.81 189.44 C-789.17 188.58 -789.53 187.72 -789.89 186.83 C-811.84 133.09 -810.38 71.52 -788.87 18.02 C-787.99 15.97 -787.02 13.98 -786 12 C-785.34 12 -784.68 12 -784 12 C-783.93 13.06 -783.85 14.11 -783.77 15.2 C-782.39 31.73 -778.25 48.03 -771 63 C-770.7 63.62 -770.41 64.25 -770.1 64.89 C-759.88 86.04 -744.85 104.89 -726 119 C-725.48 119.39 -724.97 119.78 -724.44 120.19 C-717.6 125.34 -710.55 130.01 -703.19 134.38 C-702.51 134.78 -701.83 135.18 -701.12 135.6 C-696.23 138.44 -691.21 140.79 -686 143 C-686.58 142.17 -687.16 141.35 -687.76 140.5 C-693.75 131.73 -697.65 123.05 -701 113 C-701.46 111.7 -701.46 111.7 -701.93 110.38 C-702.66 108.26 -703.34 106.14 -704 104 C-704.27 103.15 -704.53 102.31 -704.81 101.44 C-708.43 89.25 -708.17 76.9 -707.81 64.31 C-707.79 63.54 -707.77 62.77 -707.75 61.98 C-707.29 45.17 -705.38 28.63 -703 12 C-702.34 12 -701.68 12 -701 12 C-699.51 14.04 -699.51 14.04 -697.69 17.06 C-697.35 17.63 -697 18.19 -696.65 18.77 C-692.65 25.46 -688.89 32.3 -685.09 39.1 C-680.86 46.61 -676.38 53.92 -671.69 61.15 C-671.22 61.88 -670.75 62.61 -670.27 63.36 C-669.85 63.99 -669.44 64.63 -669.01 65.28 C-668 67 -668 67 -667 70 C-665.68 70.7 -664.35 71.36 -663 72 C-661.37 73.33 -659.77 74.68 -658.19 76.06 C-642.76 88.83 -623.87 97.61 -605 104 C-603.93 104.37 -602.86 104.74 -601.76 105.12 C-584.06 110.69 -565.22 112.13 -546.85 114.12 C-478.39 121.57 -478.39 121.57 -462.13 141.27 C-461.76 141.84 -461.38 142.41 -461 143 C-462.18 142.59 -463.35 142.17 -464.56 141.75 C-491.97 132.73 -520.34 131.3 -549.01 130.34 C-555.04 130.13 -561 129.68 -567 129 C-566.06 129.35 -565.11 129.7 -564.14 130.07 C-548.63 135.98 -533.14 143.07 -526 159 C-521.16 173.54 -522.1 186.58 -528.61 200.42 C-531.02 205.04 -533.52 209.6 -536.04 214.16 C-539.6 220.76 -542.16 226.53 -543 234 C-543.1 234.8 -543.19 235.61 -543.29 236.44 C-543.56 238.89 -543.79 241.35 -544 243.81 C-545.43 258.89 -548.26 273.23 -552.35 287.81 C-556.71 303.78 -559.24 319.95 -561.73 336.31 C-561.87 337.25 -562.02 338.2 -562.16 339.17 C-562.44 340.97 -562.71 342.77 -562.97 344.56 C-563.09 345.37 -563.21 346.17 -563.34 347 C-563.44 347.7 -563.55 348.41 -563.65 349.13 C-564 351 -564 351 -565 354 C-561.75 353.29 -561.75 353.29 -560.46 350.23 C-559.91 349.04 -559.37 347.85 -558.81 346.62 C-548.69 325.38 -531.07 308.43 -509.1 299.87 C-493.85 295.01 -473.28 294.71 -458.57 301.61 C-457.72 302.07 -456.88 302.53 -456 303 C-456 303.33 -456 303.66 -456 304 C-456.67 304.03 -457.33 304.05 -458.02 304.08 C-472.67 304.98 -487.58 311.58 -498 322 C-498.71 323.31 -499.39 324.64 -500 326 C-498.72 325.97 -498.72 325.97 -497.41 325.93 C-470.05 325.53 -430.9 325.55 -406 338 C-391.5 339 -377.13 338.33 -363 335 C-362.32 334.84 -361.63 334.68 -360.93 334.51 C-359.88 334.27 -359.88 334.27 -358.81 334.02 C-357.35 333.68 -355.89 333.34 -354.44 333 C-353.71 332.83 -352.98 332.66 -352.23 332.49 C-331.18 327.81 -309.49 326.78 -288 327 C-298.71 314.05 -310.01 306.26 -326 301 C-326 300.67 -326 300.34 -326 300 C-309.01 297.2 -289.07 294.7 -273 302 C-272.37 302.28 -271.74 302.57 -271.1 302.86 C-246.66 314.1 -230.54 329.36 -218 353 C-218.46 342.12 -219.83 331.67 -222 321 C-222.13 320.34 -222.26 319.68 -222.4 319 C-224.31 309.65 -227.02 300.68 -230 291.62 C-233.22 281.82 -235.81 272.11 -237.65 261.96 C-237.96 260.22 -238.3 258.49 -238.64 256.76 C-239.45 252.48 -240.03 248.34 -240.09 243.98 C-240.28 233.43 -242.49 226.19 -248 217 C-265.54 187.06 -265.54 187.06 -263 169 C-261.81 164.98 -260.16 161.58 -258 158 C-257.54 157.2 -257.08 156.4 -256.61 155.57 C-250.93 146.31 -243.06 141.06 -233.5 136.25 C-232.6 135.78 -231.7 135.31 -230.78 134.83 C-225.62 132.18 -220.48 129.92 -215 128 C-215.99 128.09 -216.98 128.17 -218 128.26 C-222.65 128.66 -227.29 129.05 -231.94 129.44 C-232.78 129.51 -233.63 129.58 -234.5 129.65 C-244.75 130.5 -254.97 131.21 -265.25 131.5 C-287.33 132.2 -308.79 134.62 -329 144 C-329.66 143.67 -330.32 143.34 -331 143 C-310.04 124.1 -283.44 118.66 -256.2 115.87 C-251.18 115.35 -246.16 114.8 -241.14 114.24 C-240.16 114.13 -239.19 114.03 -238.18 113.92 C-211.62 110.97 -184.82 106.79 -161 94 C-159.76 93.38 -158.51 92.76 -157.27 92.14 C-141.89 84.39 -129.63 75.63 -120.5 60.79 C-115.54 52.79 -110.4 44.91 -105.18 37.08 C-103.73 34.91 -102.3 32.74 -100.86 30.56 C-99.92 29.16 -98.98 27.75 -98.05 26.34 C-97.63 25.7 -97.21 25.07 -96.78 24.41 C-93.86 20.06 -90.8 15.64 -87 12 C-86.34 12 -85.68 12 -85 12 C-80.18 54.96 -80.98 100.26 -109.1 135.65 C-109.73 136.42 -110.35 137.2 -111 138 C-88.67 127.39 -67.21 116.01 -49 99 C-48.11 98.18 -48.11 98.18 -47.2 97.34 C-37.31 88.16 -29.3 78.33 -22 67 C-21.33 65.99 -20.67 64.97 -19.98 63.93 C-7.7 44.09 -3.29 22.74 0 0 Z " fill="#FDFDFD" transform="translate(1393,775)"/>
<path d="M0 0 C4.3 2.73 8.1 5.7 11.81 9.19 C12.36 9.7 12.9 10.21 13.47 10.73 C23.73 20.38 34 30.09 42.7 41.19 C46.78 46.17 51.26 50.78 55.67 55.45 C58.26 58.19 60.77 60.98 63.25 63.81 C80.79 83.72 80.79 83.72 103.23 97.27 C106.95 99.59 107.52 102.21 108.5 106.25 C108.91 107.7 109.32 109.15 109.73 110.6 C109.94 111.33 110.14 112.07 110.36 112.82 C118.27 139.6 137.47 161.11 159.72 177.28 C160.47 177.85 161.22 178.41 162 179 C162 179.33 162 179.66 162 180 C156.5 180.23 151.86 179.44 146.56 178 C145.83 177.81 145.1 177.62 144.35 177.42 C142.56 176.96 140.78 176.48 139 176 C154.83 214.1 154.83 214.1 178 248 C179.67 250 181.34 252 183 254 C181.74 254.09 180.48 254.17 179.19 254.26 C167.84 255.15 157.65 256.95 147 261 C145.74 261.48 145.74 261.48 144.45 261.97 C138.26 264.68 133.5 269.73 131 276 C129.22 288.97 133.49 299.34 140.88 309.81 C142.23 311.56 143.6 313.29 145 315 C145.67 315.83 146.35 316.65 147.04 317.5 C150.98 322.12 154.9 325.71 160 329 C159.11 336.59 152.96 341.46 147.41 346.21 C133.62 356.76 118.91 361.57 101.69 361.25 C100.55 361.24 99.41 361.24 98.23 361.23 C93.03 361.19 88.13 360.95 83 360 C86.2 351.14 92.6 344.12 99.12 337.5 C99.62 337 100.11 336.49 100.61 335.97 C104.52 332.11 108.35 329 114 329 C114 328.34 114 327.68 114 327 C112.91 327.05 111.82 327.09 110.7 327.14 C97.94 327.52 85 325.91 75 317 C74.23 314.31 74.23 314.31 74 312 C75.41 310.87 76.83 309.75 78.25 308.62 C79.04 308 79.83 307.37 80.64 306.73 C84.43 303.95 86.21 303 91 303 C90.68 302.3 90.35 301.61 90.02 300.89 C88.55 297.72 87.09 294.55 85.62 291.38 C85.12 290.28 84.61 289.19 84.09 288.06 C83.6 287 83.11 285.93 82.6 284.84 C82.15 283.86 81.7 282.89 81.24 281.88 C77.56 273.31 76.11 264.73 79.1 255.67 C84.94 243.29 94.45 236.14 107.16 231.31 C112.61 229.57 117.89 229.67 123.56 229.81 C125.08 229.83 125.08 229.83 126.62 229.85 C129.08 229.89 131.54 229.94 134 230 C128.25 225.39 122.29 221.75 115.75 218.38 C114.77 217.86 113.78 217.35 112.77 216.82 C104.87 212.79 96.8 209.25 88.62 205.81 C73.99 199.66 59.95 193.67 48 183 C47.15 182.29 46.3 181.58 45.42 180.85 C35.35 172.26 27.88 162.28 26.73 148.8 C26.46 139.75 27.44 132.88 33.79 126.09 C38.59 121.78 42.16 120.88 48.64 120.68 C49.94 120.64 51.23 120.6 52.57 120.56 C53.94 120.52 55.32 120.48 56.69 120.44 C58.07 120.39 59.45 120.35 60.84 120.31 C64.23 120.2 67.61 120.1 71 120 C70 119.78 69.01 119.55 67.98 119.32 C48.68 114.85 30.84 104.02 20 87 C16.63 80.84 13.77 74.44 11 68 C18 70.24 24.77 72.87 31.56 75.69 C32.57 76.1 33.58 76.52 34.62 76.95 C37.08 77.96 39.54 78.98 42 80 C42.33 79.67 42.66 79.34 43 79 C42.6 78.62 42.2 78.24 41.79 77.86 C24.93 61.54 0.74 32.95 -0.1 8.11 C-0.09 7.14 -0.07 6.18 -0.06 5.19 C-0.05 4.21 -0.04 3.24 -0.04 2.23 C-0.02 1.49 -0.01 0.76 0 0 Z " fill="#FDFDFD" transform="translate(505,217)"/>
<path d="M0 0 C0.13 11.07 -3.06 19.35 -8 29 C-8.31 29.62 -8.63 30.23 -8.95 30.87 C-13.7 39.99 -19.5 48.07 -26 56 C-26.67 56.83 -26.67 56.83 -27.36 57.67 C-33.51 65.21 -39.97 72.25 -47 79 C-46.09 78.57 -45.18 78.13 -44.25 77.69 C-41.06 76.31 -37.95 75.49 -34.56 74.75 C-28.44 73.31 -22.95 70.96 -17.26 68.34 C-12.17 66 -12.17 66 -10 66 C-11.44 77.24 -18.7 85.75 -26 94 C-26.54 94.64 -27.08 95.27 -27.64 95.93 C-38.34 107.65 -54.04 113.93 -69 118 C-69 118.33 -69 118.66 -69 119 C-68.3 119.01 -67.59 119.02 -66.86 119.03 C-63.62 119.08 -60.37 119.17 -57.12 119.25 C-56.02 119.26 -54.91 119.28 -53.77 119.29 C-45.94 119.52 -38.16 120.33 -32.06 125.71 C-26.81 131.32 -25.4 137.3 -25.56 144.87 C-26.96 154.82 -32.29 163.71 -39 171 C-40.31 172.43 -40.31 172.43 -41.66 173.9 C-48.39 181.03 -55.65 186.81 -64 192 C-64.65 192.4 -65.3 192.81 -65.97 193.23 C-83.33 203.9 -101.72 212.94 -120.75 220.25 C-127.43 222.82 -127.43 222.82 -132 228 C-130.7 227.95 -129.39 227.91 -128.05 227.86 C-111.18 227.44 -98 230.58 -85 242 C-83.05 244.59 -83.05 244.59 -81.31 247.38 C-80.73 248.29 -80.15 249.21 -79.55 250.15 C-74.8 258.89 -75.23 266.45 -77.94 275.75 C-80.49 283.97 -84.76 290.22 -90 297 C-90.66 297.99 -91.32 298.98 -92 300 C-91.47 300.15 -90.93 300.29 -90.38 300.45 C-84.2 302.31 -77.94 304.74 -73 309 C-72.22 311.7 -72.22 311.7 -72 314 C-81.52 321.97 -90.95 325.21 -103.31 325.06 C-104.05 325.06 -104.79 325.05 -105.56 325.05 C-107.37 325.04 -109.19 325.02 -111 325 C-111 325.66 -111 326.32 -111 327 C-109.76 327.31 -109.76 327.31 -108.5 327.62 C-100.15 330.91 -94.34 337.52 -88.16 343.81 C-84.39 347.65 -80.55 351.28 -76.36 354.67 C-75 356 -75 356 -74 359 C-78.98 359.13 -83.95 359.22 -88.93 359.27 C-90.61 359.3 -92.3 359.33 -93.98 359.38 C-114.37 359.89 -132.68 354.67 -147.83 340.29 C-150.88 337.07 -153.54 333.68 -156 330 C-154.49 326.27 -152.3 324.32 -149.25 321.75 C-139.07 312.76 -130.1 299.34 -128.75 285.47 C-128.54 277.21 -130.03 271.03 -135.77 264.92 C-148.46 254.01 -167.06 252.24 -183 250 C-180.6 247.5 -178.26 245.41 -175.38 243.5 C-161.54 233.22 -154.05 217.27 -148.01 201.63 C-144.22 191.83 -139.71 182.39 -135 173 C-135.58 173.13 -136.17 173.25 -136.77 173.38 C-139.43 173.95 -142.09 174.51 -144.75 175.06 C-146.13 175.36 -146.13 175.36 -147.54 175.67 C-148.87 175.94 -148.87 175.94 -150.23 176.22 C-151.46 176.48 -151.46 176.48 -152.71 176.75 C-155.1 177.01 -156.73 176.73 -159 176 C-158 175.41 -156.99 174.81 -155.96 174.2 C-131.23 159.32 -113.2 139.3 -105 111 C-104.64 108.55 -104.34 106.09 -104.12 103.62 C-103.5 98.43 -103.5 98.43 -101.35 96.56 C-98.94 95.52 -96.5 94.78 -94 94 C-91.83 92.99 -89.68 91.92 -87.56 90.81 C-86.55 90.3 -85.54 89.79 -84.5 89.27 C-75.66 84.02 -68.43 75.59 -61.23 68.36 C-59.81 66.93 -58.38 65.51 -56.95 64.08 C-51.75 58.88 -46.76 53.6 -42 48 C-41.05 46.92 -40.1 45.83 -39.15 44.75 C-33.68 38.49 -28.49 32.09 -23.5 25.44 C-17.79 17.83 -11.62 10.82 -5 4 C-4.25 3.22 -3.5 2.45 -2.72 1.64 C-1 0 -1 0 0 0 Z " fill="#FDFDFC" transform="translate(1496,219)"/>
<path d="M0 0 C0.33 0 0.66 0 1 0 C1.96 32.66 -10.16 59.01 -23.9 88.18 C-34.64 111.03 -45.7 135.26 -45 161 C-44.89 160.31 -44.78 159.62 -44.66 158.91 C-40.22 132.15 -30.24 106.92 -8 90 C-4.97 87.9 -1.89 85.87 1.2 83.85 C7.34 79.83 13.19 75.48 19 71 C19.33 71.66 19.66 72.32 20 73 C19.32 74.94 18.55 76.86 17.75 78.75 C7.71 103.93 10.47 130.79 14 157 C14.52 160.92 15.04 164.83 15.56 168.75 C15.75 170.16 15.75 170.16 15.94 171.59 C16.92 178.99 17.61 186.4 18.23 193.83 C18.88 201.34 19.88 208.77 21.04 216.21 C21.64 220.18 22.18 223.97 22 228 C31.02 224.02 34.57 212.99 38.39 204.55 C40.16 200.65 42.05 196.82 44 193 C47.31 194.65 47.81 198.38 49.06 201.69 C52.4 210.21 56.79 217.51 62 225 C62.66 225.99 63.32 226.98 64 228 C66.31 227.67 68.62 227.34 71 227 C74.79 235.27 77.96 243.63 80.88 252.25 C84.35 262.46 88.35 272.27 93 282 C93.48 283.01 93.48 283.01 93.97 284.03 C101 298.69 108.84 312.96 117.7 326.59 C118.13 327.39 118.56 328.18 119 329 C118.67 329.66 118.34 330.32 118 331 C117.59 330.56 117.18 330.13 116.76 329.68 C107.09 319.48 97.04 310.69 85.68 302.44 C80.11 298.39 74.92 294 69.75 289.48 C68.42 288.35 67.06 287.26 65.7 286.19 C57.32 279.56 49.92 272.11 42.44 264.5 C40.54 262.57 38.63 260.64 36.73 258.72 C35.55 257.53 34.38 256.34 33.21 255.15 C30.39 252.21 30.39 252.21 27 250 C26.92 255.21 26.87 260.41 26.84 265.62 C26.82 267.38 26.8 269.14 26.77 270.9 C26.6 282.89 27.49 294.17 29.64 305.96 C30.13 308.76 30.51 311.57 30.88 314.39 C31 315.28 31.11 316.18 31.23 317.1 C31.46 318.87 31.68 320.64 31.9 322.4 C32.6 327.73 33.59 332.81 35 338 C19.13 332.4 7.52 316.06 0.28 301.55 C-1.27 298.07 -2.67 294.57 -4 291 C-4.44 289.83 -4.88 288.65 -5.34 287.44 C-11.08 270.71 -12.71 252.89 -14.78 235.41 C-15.97 225.63 -17.61 215.94 -19.29 206.24 C-21.05 196 -22.16 186.33 -22.06 175.94 C-22.06 174.98 -22.05 174.02 -22.05 173.03 C-22.04 170.68 -22.02 168.34 -22 166 C-22.66 166 -23.32 166 -24 166 C-24.17 166.64 -24.34 167.27 -24.51 167.93 C-25.93 173.17 -27.4 178.38 -28.97 183.57 C-33.58 199.09 -36.47 213.8 -37 230 C-39 228 -39 228 -41 225 C-41.66 224.34 -42.32 223.68 -43 223 C-59.46 182.02 -61.07 140.39 -43.74 99.62 C-39.2 89.22 -34.07 79.25 -28.55 69.34 C-22.88 59.13 -17.91 48.6 -13 38 C-12.57 37.08 -12.13 36.15 -11.69 35.2 C-9.05 29.52 -6.75 23.84 -4.81 17.88 C-4.57 17.14 -4.32 16.41 -4.06 15.65 C-2.37 10.5 -1.09 5.32 0 0 Z " fill="#FCFCFC" transform="translate(540,822)"/>
<path d="M0 0 C1.47 2.76 2.47 5.37 3.26 8.39 C9.92 33.17 21.16 55.21 33.19 77.81 C47.78 105.27 47.78 105.27 52 119 C52.35 120.1 52.69 121.21 53.05 122.34 C62.12 152.57 58.05 181.61 48.86 211.17 C48.05 213.85 47.28 216.53 46.54 219.23 C46.21 220.42 46.21 220.42 45.87 221.63 C45.47 223.08 45.07 224.54 44.69 226 C43.64 229.69 43.31 230.79 40 233 C39.95 232.1 39.9 231.2 39.84 230.27 C38.7 215.66 34.24 201.96 30 188 C29.1 185 28.2 182.01 27.3 179.01 C26.78 177.3 26.26 175.58 25.73 173.86 C24 168.21 24 168.21 24 166 C23.34 166 22.68 166 22 166 C22.02 167.11 22.02 167.11 22.05 168.23 C22.34 184.2 21.78 199.52 19.79 215.37 C18.96 221.99 18.5 228.6 18.06 235.25 C15.94 264.67 9.9 296.08 -10 319 C-10.98 320.19 -10.98 320.19 -11.98 321.41 C-16.21 326.39 -20.75 330.66 -25.88 334.69 C-26.71 335.36 -26.71 335.36 -27.57 336.04 C-29.18 337.26 -29.18 337.26 -32 339 C-32.99 338.67 -33.98 338.34 -35 338 C-34.55 336.77 -34.1 335.54 -33.63 334.28 C-31.7 328.47 -30.81 322.61 -29.94 316.56 C-29.77 315.41 -29.6 314.25 -29.42 313.06 C-28.94 309.71 -28.47 306.35 -28 303 C-27.88 302.19 -27.76 301.38 -27.64 300.54 C-25.44 285.14 -25.36 269.53 -25 254 C-29.66 256.51 -33.39 259.02 -37.25 262.69 C-41.72 266.85 -46.31 270.76 -51.06 274.6 C-56.19 278.79 -61.19 283.13 -66.2 287.45 C-68.55 289.47 -70.9 291.49 -73.26 293.51 C-74.42 294.5 -75.58 295.5 -76.74 296.49 C-79.69 299.03 -82.65 301.55 -85.61 304.07 C-91.11 308.76 -96.56 313.48 -101.88 318.38 C-106.06 322.22 -110.36 325.73 -115 329 C-113.38 324.43 -111 320.5 -108.5 316.38 C-94.07 292.1 -83.13 266.57 -73.31 240.15 C-71.66 235.71 -69.93 231.33 -68 227 C-67.2 227.45 -67.2 227.45 -66.39 227.91 C-65.68 228.29 -64.98 228.67 -64.25 229.06 C-63.55 229.45 -62.86 229.83 -62.14 230.22 C-59.52 231.17 -58.53 231.17 -56 230 C-53.28 226.94 -51.18 223.46 -49 220 C-48.59 219.39 -48.19 218.78 -47.77 218.16 C-43.7 211.28 -43.16 202.77 -42 195 C-41.34 195 -40.68 195 -40 195 C-39.63 195.69 -39.26 196.37 -38.89 197.08 C-37.2 200.22 -35.51 203.36 -33.81 206.5 C-33.23 207.58 -32.66 208.66 -32.06 209.77 C-29.52 214.48 -26.97 219.14 -24.07 223.66 C-22 227 -22 227 -22 229 C-21.34 229 -20.68 229 -20 229 C-19.97 228.18 -19.95 227.36 -19.92 226.52 C-19.08 208.32 -16.25 190.2 -12.88 172.31 C-7.87 145.42 -5.24 116.35 -14 90 C-14.23 89.29 -14.47 88.57 -14.71 87.84 C-15.74 84.77 -16.83 81.74 -17.98 78.71 C-18.82 76.48 -19.49 74.33 -20 72 C-14.86 73.64 -10.91 76.77 -6.62 79.94 C-5.84 80.52 -5.05 81.1 -4.23 81.69 C-2.61 82.88 -0.99 84.08 0.63 85.27 C2.83 86.88 5.04 88.46 7.27 90.02 C13.93 94.74 20.23 99.27 25 106 C25.69 106.97 26.38 107.94 27.09 108.94 C34.52 119.76 40.3 131.76 45 144 C39.93 122.35 31.18 102.66 21.72 82.62 C9.25 56.17 -1.8 29.81 0 0 Z " fill="#FCFCFC" transform="translate(1460,820)"/>
<path d="M0 0 C6.21 0.56 11.64 1.97 17.5 4.06 C18.37 4.37 19.24 4.68 20.14 5 C42.35 13.1 60.46 25.12 75 44 C76 45.28 76.99 46.56 77.99 47.84 C85.33 57.32 92.39 66.99 99.37 76.73 C101 79 102.64 81.27 104.29 83.54 C113.28 95.95 113.28 95.95 117.17 101.52 C118.2 102.99 119.22 104.47 120.25 105.94 C120.74 106.64 121.23 107.34 121.74 108.07 C125.36 113.21 129.22 118.05 133.36 122.8 C134.96 124.95 135.6 126.37 136 129 C132.76 127.95 129.67 126.85 126.56 125.44 C120.98 123.33 115.39 123.68 109.5 123.81 C108.39 123.83 107.28 123.84 106.14 123.85 C103.43 123.89 100.71 123.94 98 124 C100.88 132.86 104.9 140.98 109.25 149.19 C110.27 151.13 111.29 153.07 112.3 155.02 C112.97 156.29 113.63 157.55 114.3 158.82 C116.72 163.44 119.07 168.08 121.38 172.75 C122.27 174.55 123.17 176.34 124.07 178.14 C124.73 179.47 125.39 180.79 126.05 182.12 C134.79 199.66 146.4 213.62 162.2 225.44 C162.79 225.96 163.39 226.47 164 227 C164 227.66 164 228.32 164 229 C151.95 226.22 140.25 222.63 128.5 218.81 C125.13 217.72 121.76 216.67 118.38 215.62 C116.93 215.18 116.93 215.18 115.46 214.73 C113.32 214.09 111.17 213.52 109 213 C109.61 213.86 110.21 214.72 110.84 215.61 C133.23 248.01 143.31 283.22 148 322 C148.18 323.35 148.18 323.35 148.36 324.74 C150.91 344.36 150.19 364.25 150 384 C147.72 380.58 146.31 377.03 144.8 373.23 C144.15 371.62 143.5 370.01 142.85 368.39 C142.51 367.54 142.16 366.7 141.81 365.82 C128.79 333.54 114.29 301.9 96.25 272.07 C93.92 268.21 91.65 264.32 89.38 260.44 C88.53 259 87.68 257.56 86.84 256.12 C86.23 255.09 85.62 254.06 85 253 C88.91 253 89.5 254.11 92.25 256.81 C93.08 257.63 93.91 258.45 94.77 259.3 C95.65 260.19 96.53 261.08 97.44 262 C98.34 262.91 99.24 263.83 100.18 264.77 C116.18 281.19 127.8 300.02 137 321 C135.02 312.66 133.03 304.33 131 296 C130.81 295.24 130.63 294.47 130.44 293.68 C117.61 241.63 88.86 199.28 51 162 C50 161 49 160 48 159 C79.05 158.04 79.05 158.04 92 165 C77.9 142.63 60.47 129.38 36 120 C44.16 113.1 55.12 108.3 66 109 C66 108.34 66 107.68 66 107 C65.42 106.82 64.84 106.65 64.24 106.46 C60.91 104.29 59.74 101.07 58.12 97.56 C56.77 94.7 55.39 91.85 54 89 C53.59 88.13 53.18 87.27 52.75 86.37 C48.98 78.87 44.1 73.47 38.06 67.69 C37.19 66.83 36.33 65.98 35.43 65.1 C31.68 61.43 27.88 57.85 23.87 54.46 C22.92 53.65 21.98 52.84 21 52 C21 51.67 21 51.34 21 51 C30.05 51.26 37.68 52.35 46 56 C35.75 34.23 21.93 13.44 0 2 C0 1.34 0 0.68 0 0 Z " fill="#FBFBFB" transform="translate(1471,690)"/>
<path d="M0 0 C4.14 3.6 6.52 7.97 9.19 12.69 C9.67 13.54 10.15 14.39 10.65 15.26 C12.11 17.84 13.56 20.42 15 23 C15.4 23.7 15.8 24.41 16.21 25.13 C33.18 55.14 44.05 88.36 51 122 C51.39 123.83 51.79 125.67 52.18 127.5 C54.31 137.6 56.06 147.71 57 158 C57.13 159.36 57.13 159.36 57.26 160.75 C58.24 172.48 58.28 184.23 58.31 196 C58.32 197.11 58.32 198.22 58.32 199.37 C58.34 214.69 57.79 229.83 56.12 245.06 C56.04 245.87 55.95 246.68 55.86 247.52 C54.42 260.58 54.42 260.58 52 263 C47.31 262.82 45.29 260.71 42.16 257.41 C41.25 256.46 40.34 255.52 39.4 254.54 C38.92 254.05 38.45 253.55 37.96 253.03 C26.69 241.21 15.81 231.38 0 226 C-0.87 225.68 -1.75 225.36 -2.64 225.04 C-14.97 221.21 -36.06 220.03 -48 226 C-52.75 226.42 -55.17 225.69 -59.06 223 C-60.49 222.04 -60.49 222.04 -61.95 221.07 C-62.96 220.38 -63.96 219.7 -65 219 C-81.16 208.54 -96.09 202.46 -115.25 200.38 C-116.36 200.25 -117.46 200.13 -118.6 200 C-130.04 198.77 -141.5 198.28 -153 198 C-150.54 189.68 -145.44 182.78 -139 177 C-138.07 176.15 -137.14 175.31 -136.19 174.44 C-126.77 166.78 -116.44 165.68 -104.69 165.81 C-103.6 165.81 -102.52 165.81 -101.4 165.81 C-93.42 165.86 -93.42 165.86 -90 167 C-94.34 161.47 -98.84 157.43 -104.77 153.64 C-107.06 151.95 -108.49 150.41 -110 148 C-110 147.34 -110 146.68 -110 146 C-99.71 141.55 -90.06 144.46 -80 148 C-78.5 148.5 -77 149.01 -75.5 149.51 C-48.69 158.56 -19.5 169.1 0.29 190.25 C1.9 192.08 1.9 192.08 4 193 C-0.97 179.5 -6.98 168.54 -17 158 C-16.34 157.67 -15.68 157.34 -15 157 C-12.3 158.06 -9.73 159.18 -7.12 160.44 C-6.36 160.8 -5.59 161.17 -4.8 161.54 C18.86 173.1 34.51 189.99 45 214 C46.21 217.64 47.16 221.27 48 225 C48.2 217.48 47.59 210.22 46.64 202.76 C46.5 201.6 46.36 200.45 46.22 199.26 C45.76 195.55 45.29 191.84 44.81 188.12 C44.65 186.86 44.49 185.59 44.33 184.28 C40.62 155.12 35.25 126.71 28.5 98.12 C27.98 95.92 27.47 93.72 26.96 91.51 C25.22 84.05 23.46 76.61 21.31 69.25 C20.94 67.97 20.94 67.97 20.56 66.66 C15.1 47.96 9.3 29.38 2.74 11.03 C2.38 10.02 2.02 9.01 1.65 7.96 C1.33 7.07 1.01 6.18 0.68 5.27 C0 3 0 3 0 0 Z " fill="#FCFCFC" transform="translate(889,553)"/>
<path d="M0 0 C0.33 0.66 0.66 1.32 1 2 C0.15 2.23 -0.7 2.47 -1.57 2.71 C-27.07 10.64 -43.15 33.96 -56 56 C-55.3 55.82 -54.59 55.64 -53.87 55.45 C-48.12 53.99 -42.36 52.6 -36.56 51.31 C-35.43 51.06 -34.3 50.81 -33.13 50.55 C-30.33 50.06 -27.83 49.89 -25 50 C-27.94 52.96 -30.9 55.88 -33.89 58.79 C-45.14 69.78 -54.27 80.47 -61.82 94.32 C-64.5 99.24 -67.46 103.65 -71 108 C-70.07 108.23 -69.14 108.46 -68.18 108.7 C-59.5 110.92 -51.3 113.59 -43 117 C-43 117.99 -43 118.98 -43 120 C-43.78 120.31 -43.78 120.31 -44.57 120.62 C-68.1 130.04 -81.97 142.02 -96 163 C-95.01 162.67 -94.02 162.34 -93 162 C-78.9 159.03 -65.4 157.83 -51 158 C-54.03 161.08 -57.13 164.05 -60.35 166.94 C-64.93 171.06 -69.28 175.2 -73.24 179.93 C-75.33 182.39 -77.54 184.71 -79.75 187.06 C-113.19 223.84 -130.61 270.18 -141 318 C-139.52 316.52 -138.82 314.75 -137.88 312.87 C-126.97 291.31 -111.67 264.54 -90 252 C-91.42 255.82 -93.19 259.24 -95.23 262.75 C-95.87 263.86 -96.51 264.96 -97.17 266.1 C-97.84 267.25 -98.51 268.41 -99.19 269.56 C-99.84 270.68 -100.48 271.8 -101.15 272.95 C-103.73 277.39 -106.32 281.84 -108.92 286.27 C-113.2 293.55 -117.08 300.92 -120.78 308.52 C-122.12 311.24 -123.48 313.95 -124.84 316.66 C-135.85 338.84 -145.38 361.78 -154 385 C-154.33 385 -154.66 385 -155 385 C-155.65 348.46 -154.8 310.22 -143.66 275.1 C-142.99 272.98 -142.36 270.84 -141.73 268.71 C-135.32 247.56 -124.75 228.94 -112 211 C-112.51 211.21 -113.01 211.42 -113.53 211.64 C-125.86 216.74 -138.22 221.2 -151 225 C-152.38 225.42 -153.75 225.84 -155.12 226.26 C-165.12 229.23 -165.12 229.23 -170 229 C-168.79 225.38 -167.57 224.65 -164.56 222.38 C-150.88 211.68 -140.61 200.12 -132 185 C-131.65 184.4 -131.3 183.8 -130.94 183.18 C-120.49 165.14 -111.59 144.78 -105 125 C-122.15 124.16 -122.15 124.16 -138 130 C-138.66 130.33 -139.32 130.66 -140 131 C-138.45 127.49 -136.33 124.81 -133.88 121.88 C-133.07 120.9 -132.26 119.92 -131.43 118.92 C-129.94 117.13 -128.44 115.34 -126.95 113.55 C-119.21 104.16 -113.03 93.91 -107.09 83.33 C-87.19 48.26 -58.78 14.12 -18.61 2.93 C-12.34 1.31 -6.5 -0.13 0 0 Z " fill="#FBFBFB" transform="translate(535,690)"/>
<path d="M0 0 C1 2 1 2 0.09 5.11 C-0.38 6.47 -0.87 7.82 -1.36 9.17 C-1.9 10.7 -2.44 12.23 -2.98 13.76 C-3.27 14.57 -3.55 15.38 -3.85 16.22 C-13.2 42.58 -21.43 69.38 -27.47 96.7 C-28.09 99.39 -28.77 102.07 -29.45 104.74 C-40.4 148.29 -46.35 193.22 -49 238 C-48.74 237.21 -48.47 236.41 -48.2 235.59 C-37.47 203.26 -24.44 177.89 6.94 161.92 C11.47 159.71 16.06 158.06 21 157 C20.36 157.62 19.72 158.24 19.06 158.88 C5.08 172.5 5.08 172.5 -1.12 190.31 C-1.08 191.2 -1.04 192.09 -1 193 C-0.48 192.43 0.05 191.86 0.59 191.27 C21.51 169.37 48.79 154.49 78 147 C79.11 146.64 80.22 146.29 81.37 145.92 C85.47 144.88 89.16 144.62 93.38 144.62 C94.49 144.62 94.49 144.62 95.63 144.62 C101.58 144.74 105.81 145.98 111 149 C111 149.66 111 150.32 111 151 C109.78 151.45 108.57 151.91 107.31 152.38 C102.1 154.66 97.92 157.92 93.52 161.47 C90.77 163.68 88.16 165.45 85 167 C84.67 167.66 84.34 168.32 84 169 C84.99 168.98 85.98 168.96 87.01 168.94 C90.75 168.86 94.49 168.82 98.24 168.78 C99.85 168.76 101.46 168.73 103.07 168.7 C116.98 168.4 129.92 169.59 141 179 C144.34 182.32 147.15 185.64 149 190 C149 190.99 149 191.98 149 193 C147.88 192.95 146.76 192.91 145.61 192.86 C117.19 192.07 82.56 196.65 58.26 212.82 C49.96 218.33 42.86 218.91 33.19 218.69 C11.95 218.36 -5.71 223.67 -22 238 C-22.77 238.63 -23.54 239.25 -24.33 239.9 C-29.47 244.19 -33.19 248.82 -37.02 254.3 C-39.88 258.2 -42.98 262.26 -47 265 C-49.11 264.89 -49.11 264.89 -51 264 C-52.93 261.11 -53.33 260.03 -53.78 256.75 C-53.9 255.89 -54.02 255.03 -54.14 254.15 C-54.26 253.26 -54.38 252.36 -54.5 251.44 C-54.62 250.6 -54.73 249.76 -54.86 248.9 C-55.26 245.94 -55.63 242.97 -56 240 C-56.08 239.36 -56.17 238.72 -56.26 238.07 C-57.87 225.81 -58.36 213.73 -58.31 201.38 C-58.31 200.45 -58.31 199.52 -58.31 198.56 C-58.24 173.39 -55.99 148.7 -51 124 C-50.85 123.23 -50.7 122.46 -50.54 121.67 C-46.95 103.49 -41.87 85.21 -35 68 C-34.64 67.11 -34.29 66.21 -33.92 65.29 C-24.71 42.35 -14.01 20.41 0 0 Z " fill="#FBFBFB" transform="translate(1112,552)"/>
<path d="M0 0 C4.1 3.47 5.86 7.42 7.94 12.25 C8.46 13.44 8.46 13.44 8.98 14.65 C21.41 43.75 21.47 76.17 9.95 105.69 C9.16 107.59 8.37 109.48 7.55 111.36 C5.06 117.21 2.69 123.1 0.3 129 C-2.03 134.71 -4.45 140.38 -7 146 C-7.33 146 -7.66 146 -8 146 C-8.03 144.93 -8.05 143.85 -8.08 142.75 C-8.15 132.08 -8.15 132.08 -13 123 C-19.91 118.43 -26.83 117.31 -35 118 C-45.08 121.14 -51.21 130.17 -56.16 139.09 C-62.63 151.45 -67.45 164.25 -70 178 C-70.33 178 -70.66 178 -71 178 C-71.33 150.28 -71.66 122.56 -72 94 C-73.32 99.61 -74.64 105.22 -76 111 C-77.41 115.09 -78.84 119.02 -80.5 123 C-80.93 124.05 -81.36 125.1 -81.8 126.18 C-87.52 139.95 -94.08 153.34 -100.86 166.62 C-115.37 195.1 -126.57 222.86 -128 255 C-132.74 250.26 -132.25 241.37 -132.28 235.01 C-132.27 234.1 -132.26 233.19 -132.25 232.25 C-132.24 231.28 -132.23 230.32 -132.23 229.32 C-131.67 193.45 -113.95 162.3 -97.77 131.29 C-92.88 121.88 -88.16 112.45 -83.97 102.71 C-83.62 101.88 -83.26 101.06 -82.9 100.21 C-77.64 87.7 -73.59 74.51 -72 61 C-68.29 63.71 -66.07 66.14 -63.81 70.12 C-60.08 76.22 -55.58 81.5 -50 86 C-49.01 86 -48.02 86 -47 86 C-45.93 82.8 -45.61 79.99 -45.28 76.64 C-45.15 75.36 -45.03 74.08 -44.89 72.76 C-44.83 72.09 -44.76 71.42 -44.7 70.73 C-44.5 68.73 -44.3 66.74 -44.11 64.75 C-43.26 56.17 -42.57 47.6 -42 39 C-28.75 45.02 -21.35 52.85 -15 66 C-4.86 48.77 4.08 31.66 2 11 C1.37 8.99 0.71 6.98 0 5 C-0.12 2.12 -0.12 2.12 0 0 Z " fill="#FBFBFB" transform="translate(1399,1177)"/>
<path d="M0 0 C0.33 0 0.66 0 1 0 C0.98 1.2 0.98 1.2 0.97 2.43 C0.93 6.1 0.9 9.77 0.88 13.44 C0.86 14.7 0.84 15.96 0.82 17.26 C0.74 34.04 6.13 48.8 15 63 C15.66 63.33 16.32 63.66 17 64 C17.25 63.12 17.5 62.24 17.75 61.34 C21.24 52.03 29.84 44.38 38 39 C38.66 39 39.32 39 40 39 C41.21 41.42 41.37 43.4 41.68 46.09 C41.81 47.12 41.93 48.16 42.06 49.22 C42.31 51.37 42.56 53.53 42.81 55.69 C44.28 68.39 44.28 68.39 48 80.56 C48.33 81.39 48.66 82.22 49 83.07 C49.85 85.17 49.85 85.17 52 86 C53.95 83.32 55.88 80.63 57.81 77.94 C58.36 77.19 58.91 76.43 59.47 75.66 C62.63 71.24 65.08 67.08 67 62 C67.66 62 68.32 62 69 62 C69.12 62.55 69.24 63.09 69.36 63.66 C75.87 92.95 88.1 118.59 101.86 145.12 C118.53 177.26 136.91 213.82 126.66 250.93 C126.44 251.61 126.22 252.3 126 253 C125.67 253 125.34 253 125 253 C124.96 251.83 124.96 251.83 124.92 250.64 C123.43 221.25 112.17 194.94 99.02 169.01 C95.21 161.5 91.64 153.87 88.06 146.25 C87.08 144.17 86.09 142.09 85.09 140.02 C80.32 130.09 75.57 119.75 73 109 C73.61 142.01 73.61 142.01 75 175 C74.34 174.67 73.68 174.34 73 174 C72.17 171.11 71.44 168.24 70.75 165.31 C66.72 149.28 58.88 127.41 44.25 117.86 C38.28 115.13 31.4 115.25 25 116 C19.29 118.71 15.47 123.21 13 129 C12.4 131.59 11.86 134.14 11.38 136.75 C11.24 137.45 11.11 138.14 10.97 138.86 C10.64 140.57 10.32 142.29 10 144 C-10.83 121.16 -16.48 81.07 -15.15 51.67 C-14.14 33.51 -6.68 16.72 0 0 Z " fill="#FBFBFB" transform="translate(608,1178)"/>
<path d="M0 0 C3.53 0.6 6.5 1.54 9.75 3.04 C10.65 3.45 11.56 3.86 12.5 4.29 C13.47 4.73 14.44 5.17 15.44 5.62 C36.34 14.89 58.95 22.4 82 23 C82.78 23.03 83.56 23.05 84.37 23.08 C115.61 24.01 148.37 16.47 176.19 1.85 C178 1 178 1 181 1 C181.12 1.98 181.24 2.96 181.37 3.96 C181.54 5.29 181.7 6.61 181.88 7.94 C181.96 8.63 182.05 9.32 182.14 10.03 C182.62 13.61 183.2 17.08 184.12 20.56 C185.56 26.45 186.76 35.49 184 41 C180.29 39.76 179.35 38.03 177 35 C172.18 32.59 165.44 33.44 160.34 34.61 C151.38 37.84 144.73 44.16 138.19 50.88 C131.17 58.05 121.6 67.71 111.44 69.43 C104.19 69.45 100.74 67.67 95.5 62.56 C91.63 57.71 89.44 51.66 87 46 C85.37 48.45 84.35 50.44 83.25 53.12 C80.62 59.15 77.56 65.3 72 69 C62.55 69.61 56.71 63.88 50 58 C45.28 53.83 40.65 49.56 36.12 45.18 C29.2 38.78 19.59 33.67 10.06 33.77 C5.76 34.25 2.52 36.66 -1 39 C-1.99 39 -2.98 39 -4 39 C-4.33 30.26 -3.32 21.94 -2 13.31 C-1.81 12.03 -1.62 10.74 -1.42 9.42 C-0.95 6.28 -0.48 3.14 0 0 Z " fill="#FCFCFC" transform="translate(910,1522)"/>
<path d="M0 0 C0.66 0 1.32 0 2 0 C6.89 7.86 10.94 15.77 14.38 24.38 C14.71 25.21 15.04 26.04 15.38 26.89 C21.18 41.78 21.75 55.54 15.56 70.48 C10.71 80.8 4.77 91.19 -6 96 C-5.67 94.87 -5.34 93.73 -5 92.56 C-2.64 82.93 -3.26 70.97 -8.44 62.38 C-10.65 59.09 -12.72 57.3 -16.69 56.38 C-17.83 56.19 -17.83 56.19 -19 56 C-19.37 57.3 -19.37 57.3 -19.75 58.62 C-21.18 62.49 -23.05 66.05 -26 69 C-28.31 69.32 -28.31 69.32 -31 69 C-33.06 67.24 -33.06 67.24 -35 64.88 C-35.69 64.06 -36.37 63.24 -37.08 62.4 C-38.22 60.97 -39.35 59.53 -40.45 58.07 C-42.81 54.85 -42.81 54.85 -46.45 53.62 C-49.06 53.76 -49.06 53.76 -50.66 55.54 C-51.12 56.23 -51.59 56.92 -52.06 57.62 C-52.81 58.71 -52.81 58.71 -53.57 59.82 C-54.04 60.54 -54.52 61.26 -55 62 C-55.63 62.92 -55.63 62.92 -56.27 63.87 C-57.2 65.23 -58.1 66.62 -59 68 C-64.74 67.15 -67.93 63.24 -71.25 58.81 C-72 57.77 -72 57.77 -72.77 56.71 C-74.46 54.3 -74.46 54.3 -77.25 53.44 C-80.01 53.72 -80.01 53.72 -81.34 55.47 C-84.52 60.33 -86.42 65.44 -88 71 C-93.91 70.44 -97.86 68.56 -101.71 63.96 C-103.19 62 -104.62 60.02 -106 58 C-107.94 58.22 -107.94 58.22 -110 59 C-111.78 61.44 -112.83 64.22 -114 67 C-114.41 67.91 -114.83 68.82 -115.25 69.75 C-117.3 78.62 -116.42 86.09 -112 94 C-111.5 94.99 -111.5 94.99 -111 96 C-117.8 95.05 -121.69 90.85 -125.89 85.66 C-136.69 70.75 -139.91 56.33 -137.25 38.19 C-135.51 30.29 -132.24 23 -129 15.62 C-128.73 15.01 -128.46 14.39 -128.19 13.76 C-127.41 11.99 -126.61 10.23 -125.81 8.48 C-125.34 7.45 -124.88 6.42 -124.39 5.35 C-123 3 -123 3 -120 2 C-119.91 2.69 -119.82 3.39 -119.73 4.1 C-117.59 22.44 -117.59 22.44 -110 39 C-109.34 39 -108.68 39 -108 39 C-106.35 33.72 -104.7 28.44 -103 23 C-102.01 23 -101.02 23 -100 23 C-98.32 25.45 -98.32 25.45 -96.56 28.69 C-94.32 32.79 -92.02 36.42 -89 40 C-86.59 39.89 -86.59 39.89 -84 39 C-81.14 35.39 -80.13 31.42 -79 27 C-77 28 -77 28 -75.69 31.25 C-74.13 35.03 -72.25 37.43 -69 40 C-65.97 41.15 -65.97 41.15 -63 41 C-60.01 38.77 -59.34 36.41 -58.44 32.88 C-57.75 30.18 -57.75 30.18 -57 28 C-56.01 27.51 -56.01 27.51 -55 27 C-54.52 27.84 -54.04 28.69 -53.54 29.55 C-52.91 30.65 -52.28 31.75 -51.62 32.88 C-51 33.97 -50.37 35.06 -49.73 36.18 C-48.14 39.01 -48.14 39.01 -46 41 C-43.04 41.5 -43.04 41.5 -40 41 C-37.35 38.45 -36.24 35.42 -35 32 C-32.12 33.17 -30.66 34.35 -28.44 36.62 C-26.21 39.35 -26.21 39.35 -23 39 C-20.33 32.95 -18.49 27.61 -18 21 C-14.17 22.47 -12.82 24.42 -10.81 27.94 C-10.05 29.25 -10.05 29.25 -9.27 30.59 C-8 33 -8 33 -7 36 C-6.01 36.33 -5.02 36.66 -4 37 C-3.87 36.39 -3.73 35.77 -3.6 35.14 C-3.42 34.33 -3.24 33.52 -3.06 32.69 C-2.89 31.89 -2.71 31.09 -2.54 30.26 C-2 28 -2 28 -1 25 C-0.85 23.08 -0.75 21.16 -0.68 19.24 C-0.64 18.12 -0.6 17 -0.56 15.85 C-0.52 14.68 -0.48 13.52 -0.44 12.31 C-0.37 10.54 -0.37 10.54 -0.31 8.74 C-0.2 5.83 -0.1 2.91 0 0 Z " fill="#FAFAFA" transform="translate(1063,1408)"/>
<path d="M0 0 C0.66 0 1.32 0 2 0 C2.2 0.9 2.39 1.79 2.59 2.72 C6.78 20.19 15.84 34.14 25.37 49.23 C36.16 66.34 44.66 82.32 45 103 C45.33 101.23 45.66 99.46 45.99 97.69 C46.2 96.56 46.41 95.43 46.63 94.26 C47.09 91.78 47.55 89.29 48 86.8 C49.97 76.07 49.97 76.07 51 71.2 C54.57 53.99 53.4 37.07 50.66 19.82 C49.99 15.49 49.88 11.37 50 7 C57.31 14.31 58.85 32.59 61.35 42.43 C61.87 44.49 62.41 46.54 62.95 48.6 C63.73 51.72 64.39 54.84 65 58 C65.14 58.7 65.27 59.39 65.41 60.11 C67.74 72.65 68.31 85.09 68.38 97.81 C68.38 98.54 68.39 99.27 68.4 100.01 C68.53 115.8 65.43 130.64 62 146 C61.19 145.94 60.38 145.88 59.55 145.82 C53.05 145.43 53.05 145.43 47.19 147.75 C44.4 151.89 41.93 156.17 39.55 160.55 C39.04 161.36 38.53 162.17 38 163 C37.34 163 36.68 163 36 163 C35.84 162.27 35.68 161.54 35.51 160.78 C32.61 149.23 27.54 138.76 22.43 128.04 C21.09 125.2 19.8 122.35 18.52 119.49 C13.83 109.16 8.53 99.67 2.11 90.31 C1.58 89.52 1.04 88.74 0.49 87.93 C0.01 87.24 -0.47 86.55 -0.97 85.84 C-2 84 -2 84 -2 81 C12.43 89.21 25.9 98.58 38 110 C34.22 93.62 24.24 78.59 15.59 64.4 C4.78 46.62 -6.46 26.51 -1.52 4.92 C-1.06 3.27 -0.53 1.63 0 0 Z " fill="#FAFAFA" transform="translate(1460,484)"/>
<path d="M0 0 C4.01 4.01 3.23 9.12 3.25 14.44 C3.17 36.38 -7 53.19 -18.54 71.29 C-26.8 84.29 -32.9 97.48 -38 112 C-35.01 109.66 -32.14 107.24 -29.32 104.7 C-24.76 100.69 -19.87 97.25 -14.88 93.81 C-14.01 93.21 -13.14 92.61 -12.25 91.99 C-7.86 88.95 -3.45 85.94 1 83 C1.66 83.33 2.32 83.66 3 84 C2.52 84.5 2.03 85 1.53 85.51 C-13.41 101.52 -20.6 121.99 -27.81 142.25 C-28.81 145.04 -29.81 147.84 -30.82 150.63 C-31.44 152.35 -32.05 154.07 -32.67 155.79 C-32.94 156.57 -33.22 157.34 -33.51 158.13 C-33.75 158.81 -33.99 159.49 -34.24 160.18 C-35 162 -35 162 -37 165 C-37.64 163.96 -38.28 162.93 -38.94 161.86 C-39.81 160.49 -40.69 159.12 -41.56 157.75 C-41.98 157.07 -42.4 156.39 -42.83 155.68 C-45.96 150.84 -48.72 148.39 -54 146 C-58.67 145.58 -58.67 145.58 -63 147 C-63.19 145.93 -63.39 144.85 -63.59 143.75 C-63.85 142.31 -64.11 140.87 -64.38 139.44 C-64.5 138.73 -64.63 138.03 -64.76 137.3 C-65.37 133.97 -66.06 130.79 -67.04 127.54 C-74.66 99.5 -66.36 68.07 -59.86 40.64 C-59.08 37.32 -58.3 34 -57.54 30.67 C-57.11 28.82 -56.68 26.97 -56.25 25.12 C-56.06 24.32 -55.88 23.51 -55.69 22.68 C-53.08 11.7 -53.08 11.7 -51 7 C-50.34 6.67 -49.68 6.34 -49 6 C-49.12 7.88 -49.25 9.75 -49.38 11.62 C-49.44 12.67 -49.51 13.71 -49.59 14.79 C-49.88 18.4 -50.46 21.94 -51.02 25.52 C-52.12 33.08 -52.35 40.49 -52.31 48.12 C-52.31 49.13 -52.31 49.13 -52.31 50.16 C-52.22 68.29 -49.28 84.71 -44 102 C-43.96 101.35 -43.93 100.69 -43.89 100.02 C-42.3 77.94 -31.4 59.69 -19.5 41.56 C-10.78 28.2 -4.63 15.3 0 0 Z " fill="#FAFAFA" transform="translate(541,484)"/>
<path d="M0 0 C0.07 0.62 0.14 1.25 0.21 1.89 C1.6 13.96 3.13 25.45 7 37 C7.43 38.38 7.85 39.76 8.27 41.14 C17.06 69.34 31.88 95.93 46.09 121.71 C64.97 155.98 82.35 191.68 82.06 231.56 C82.06 232.76 82.05 233.96 82.05 235.2 C82.04 238.13 82.02 241.07 82 244 C81.67 244 81.34 244 81 244 C80.91 243.43 80.82 242.87 80.73 242.28 C76.52 216.26 68.13 192.27 55.97 168.89 C55.03 167.06 54.12 165.22 53.21 163.37 C47.37 151.43 40.99 139.79 34.67 128.1 C19.29 99.61 5.19 71.04 -1 39 C-6.67 66.64 -6.56 93.89 -6 122 C-16.53 112.02 -18.92 93.35 -19.34 79.5 C-19.6 59.51 -13.86 40.64 -8.12 21.68 C-6.23 15.4 -4.5 9.26 -3.48 2.77 C-3.32 2.19 -3.16 1.6 -3 1 C-1 0 -1 0 0 0 Z " fill="#F7F7F7" transform="translate(471,1058)"/>
<path d="M0 0 C0.66 0 1.32 0 2 0 C5.77 12.89 9.31 25.83 12.64 38.85 C12.92 39.94 13.2 41.03 13.48 42.15 C13.75 43.18 14.01 44.21 14.28 45.27 C14.85 47.42 15.48 49.54 16.14 51.66 C21.77 73.52 18.51 98.24 8 118 C6.28 119.95 6.28 119.95 5 121 C5.11 119.95 5.11 119.95 5.22 118.89 C5.97 110.4 6.11 101.96 6.12 93.44 C6.13 92.31 6.13 91.19 6.14 90.04 C6.12 77.15 4.81 64.85 2.44 52.19 C2.2 50.91 1.97 49.63 1.73 48.32 C1.16 45.21 0.58 42.11 0 39 C-0.22 39.98 -0.45 40.96 -0.68 41.97 C-8.76 76.74 -24.71 108.33 -42.12 139.25 C-58.83 168.95 -75.63 200.42 -80.11 234.68 C-80.35 236.46 -80.67 238.23 -81 240 C-81.66 240.33 -82.32 240.66 -83 241 C-83.85 192.93 -65.4 152.9 -42.61 111.42 C-24.69 79.17 -24.69 79.17 -11 45 C-10.46 43.4 -9.92 41.79 -9.38 40.19 C-9.15 39.48 -8.92 38.78 -8.68 38.05 C-8.22 36.68 -7.75 35.31 -7.26 33.95 C-3.37 23 -1.62 11.47 0 0 Z " fill="#F8F8F7" transform="translate(1531,1060)"/>
<path d="M0 0 C0.78 0 1.56 0.01 2.37 0.02 C17.55 0.46 32.06 7.53 42.5 18.5 C45.87 22.48 49.02 26.63 52.17 30.77 C54.75 34.12 57.45 37.36 60.14 40.61 C61.5 42.5 61.5 42.5 61.5 44.5 C54.84 45.52 48.17 46.52 41.5 47.5 C40.75 47.61 40 47.72 39.22 47.84 C23.97 50.08 5.05 52.74 -8.5 43.5 C-22.83 32.12 -22.83 32.12 -24.5 23.5 C-24.88 17.63 -24.47 13.75 -21.5 8.5 C-15.13 2.13 -8.76 -0.07 0 0 Z " fill="#FCFCFC" transform="translate(775.5,796.5)"/>
<path d="M0 0 C3.1 1.23 6.19 2.49 9.27 3.77 C25.63 10.51 41.71 15.01 58.99 18.77 C68.44 20.84 77.76 23.12 87 26 C88.35 26.42 88.35 26.42 89.73 26.85 C105.81 31.94 121.94 37.66 134 50 C130.39 51.2 129.28 50.39 125.96 48.85 C122.69 47.43 119.29 46.52 115.85 45.59 C115.08 45.37 114.3 45.16 113.5 44.94 C105.09 42.68 96.59 40.92 88.06 39.18 C66 34.65 44.38 29.86 24 20 C27.33 21.84 30.66 23.67 34 25.5 C35.01 26.05 36.01 26.6 37.05 27.17 C42.7 30.26 48.38 33.21 54.19 36 C67.8 42.64 80.67 50.94 92 61 C92.86 61.74 93.72 62.48 94.6 63.24 C110.91 77.5 123.45 95.54 128 117 C128.06 119 128.08 121 128 123 C125.67 120.67 124.76 118.54 123.38 115.56 C117.18 103.02 107.97 92.71 98 83 C97.5 82.49 97 81.97 96.49 81.44 C92.51 77.36 88.4 73.76 83.81 70.38 C83.13 69.87 82.45 69.36 81.75 68.84 C70.11 60.31 57.85 52.69 45.5 45.25 C28.2 34.79 13.49 22.82 3.26 5.16 C2.24 3.41 1.13 1.69 0 0 Z " fill="#F7F7F7" transform="translate(694,429)"/>
<path d="M0 0 C-11.41 23.25 -31.05 36.29 -52.44 49.44 C-69.55 59.96 -85.23 71.33 -100 85 C-100.59 85.53 -101.18 86.05 -101.79 86.59 C-111.73 95.85 -119.03 107.92 -125 120 C-125.33 120 -125.66 120 -126 120 C-126.28 114.46 -125.45 110.19 -123.56 105 C-123.3 104.26 -123.03 103.52 -122.75 102.76 C-117.78 89.67 -110.26 79.33 -100.43 69.46 C-99.13 68.13 -97.87 66.76 -96.61 65.39 C-77.69 45.18 -50.3 33.37 -26 21 C-26.55 21.2 -27.11 21.39 -27.68 21.59 C-30.24 22.5 -32.81 23.41 -35.38 24.31 C-36.68 24.78 -36.68 24.78 -38.01 25.25 C-48.54 28.95 -59.14 31.85 -70 34.44 C-71.3 34.75 -72.59 35.06 -73.89 35.37 C-80.79 37.02 -87.69 38.62 -94.62 40.12 C-112.86 43.99 -112.86 43.99 -130.29 50.4 C-131.13 50.7 -131.13 50.7 -132 51 C-132.66 50.67 -133.32 50.34 -134 50 C-124.8 40.85 -112.92 34.87 -101 30 C-100.04 29.6 -99.08 29.21 -98.09 28.8 C-87.5 24.73 -76.52 22.38 -65.5 19.82 C-59.4 18.39 -53.33 16.89 -47.25 15.38 C-46.12 15.1 -44.99 14.82 -43.83 14.54 C-32.49 11.71 -21.51 8.47 -10.81 3.75 C-9.17 3.03 -7.54 2.32 -5.89 1.61 C-5.19 1.3 -4.49 0.99 -3.76 0.67 C-2 0 -2 0 0 0 Z " fill="#F8F8F8" transform="translate(1306,430)"/>
<path d="M0 0 C3.84 2.51 5.93 4.93 8 9 C9.24 17.89 7.59 24.85 2.19 32 C-5.56 40.44 -18.81 45.28 -30.04 46.27 C-33.24 46.37 -36.42 46.36 -39.62 46.31 C-40.75 46.3 -41.88 46.3 -43.04 46.29 C-52.13 46.16 -61.03 45.4 -70 44 C-68.68 40.37 -67.09 37.49 -64.81 34.38 C-62.26 30.83 -59.89 27.24 -57.62 23.5 C-50.19 11.77 -40.48 2.07 -27.06 -2.34 C-18.15 -4.26 -8.25 -4.2 0 0 Z " fill="#FCFCFC" transform="translate(1233,798)"/>
<path d="M0 0 C0.66 0 1.32 0 2 0 C3.3 1.33 3.3 1.33 4.88 3.25 C8.85 7.97 13.26 12.16 17.74 16.39 C25.87 24.89 31.46 35.21 36.52 45.71 C37.79 48.36 39.09 50.99 40.38 53.62 C41.03 54.93 41.67 56.25 42.32 57.56 C44.86 62.74 47.48 67.85 50.19 72.94 C50.57 73.66 50.96 74.39 51.36 75.14 C52.15 76.62 52.93 78.1 53.72 79.58 C55.17 82.33 56.6 85.09 58.03 87.84 C59.08 89.88 60.14 91.91 61.19 93.94 C61.69 94.92 62.2 95.89 62.72 96.9 C65.94 103.07 69.29 109.09 72.99 114.99 C73.32 115.65 73.66 116.32 74 117 C73.67 117.66 73.34 118.32 73 119 C63.55 112.47 54.66 105.55 46 98 C44.84 97.01 44.84 97.01 43.66 96 C41.75 94.36 39.87 92.69 38 91 C37.15 90.25 37.15 90.25 36.28 89.48 C11.61 66.44 2.35 32.39 0 0 Z " fill="#FBFBFB" transform="translate(835,1373)"/>
<path d="M0 0 C0.33 0 0.66 0 1 0 C2.13 32.04 -7.87 60.62 -29 85 C-29.68 85.81 -30.37 86.61 -31.07 87.44 C-39.01 96.55 -47.71 104.56 -57.5 111.62 C-58.09 112.05 -58.67 112.48 -59.28 112.92 C-62.11 114.9 -64.54 116.51 -68 117 C-67.26 115.51 -66.51 114.02 -65.77 112.53 C-65.07 111.14 -64.37 109.74 -63.68 108.35 C-61.55 104.09 -59.41 99.83 -57.25 95.58 C-51.78 84.74 -46.5 73.85 -41.44 62.81 C-20.57 17.47 -20.57 17.47 -3.26 3.84 C-0.93 2.2 -0.93 2.2 0 0 Z " fill="#FBFBFB" transform="translate(1166,1373)"/>
<path d="M0 0 C0.75 0 1.51 0 2.29 0 C20.88 0.07 39.01 1.93 56.88 7.31 C57.69 7.55 58.5 7.8 59.33 8.05 C72.56 12.06 86.95 16.49 97.88 25.31 C95.25 25.03 92.62 24.73 90 24.44 C88.91 24.32 88.91 24.32 87.8 24.2 C83.83 23.75 79.94 23.16 76.04 22.34 C70.45 21.18 64.84 20.44 59.19 19.75 C58.21 19.62 57.24 19.5 56.24 19.37 C40.48 17.41 24.85 17.13 8.99 17.13 C5.48 17.13 1.96 17.11 -1.55 17.09 C-22.08 17.04 -42.3 18.37 -62.56 21.69 C-63.93 21.9 -65.3 22.12 -66.67 22.34 C-75.27 23.73 -83.73 25.42 -92.14 27.71 C-94.99 28.28 -96.45 28.33 -99.12 27.31 C-84.7 17.57 -68.95 11.3 -52.17 6.85 C-49.56 6.16 -46.96 5.43 -44.36 4.7 C-29.73 0.93 -15.06 -0.07 0 0 Z " fill="#F8F8F8" transform="translate(1001.125,1000.6875)"/>
<path d="M0 0 C0.99 0.5 0.99 0.5 2 1 C0.84 2.19 -0.33 3.38 -1.5 4.56 C-2.15 5.22 -2.8 5.89 -3.47 6.57 C-5.53 8.55 -7.62 10.43 -9.78 12.31 C-13.96 15.93 -17.99 19.7 -22 23.5 C-26.62 27.88 -31.3 32.17 -36.11 36.35 C-38.87 38.76 -41.56 41.25 -44.25 43.75 C-45.38 44.79 -46.5 45.84 -47.63 46.88 C-48.19 47.4 -48.75 47.92 -49.33 48.45 C-51.94 50.87 -54.56 53.28 -57.19 55.69 C-57.69 56.15 -58.19 56.6 -58.7 57.07 C-61.7 59.82 -64.72 62.54 -67.75 65.25 C-74.25 71.08 -80.58 77.08 -86.94 83.06 C-95.25 90.87 -103.6 98.65 -112 106.37 C-115.08 109.2 -118.13 112.06 -121.16 114.94 C-121.87 115.62 -122.58 116.29 -123.31 116.98 C-124.69 118.29 -126.07 119.61 -127.45 120.93 C-131.1 124.39 -134.71 127.35 -139 130 C-137.37 125.01 -134.46 121.1 -131.44 116.88 C-130.63 115.74 -130.63 115.74 -129.8 114.58 C-125.44 108.51 -120.84 102.7 -116 97 C-115.17 96 -114.34 95 -113.49 93.97 C-101.41 79.4 -88.42 65 -73.99 52.72 C-72.6 51.52 -71.23 50.28 -69.88 49.03 C-62.7 42.35 -54.97 36.47 -47.13 30.59 C-45.18 29.13 -43.24 27.66 -41.31 26.18 C-31.01 18.38 -20.11 11.58 -9 5 C-7.73 4.24 -7.73 4.24 -6.44 3.47 C-5.63 3 -4.82 2.54 -3.99 2.05 C-3.27 1.63 -2.55 1.21 -1.81 0.78 C-1.21 0.52 -0.61 0.27 0 0 Z " fill="#F8F8F7" transform="translate(1416,217)"/>
<path d="M0 0 C26.88 9.93 52.54 31.58 73.42 50.66 C74.82 51.93 76.22 53.19 77.66 54.42 C83.49 59.41 88.94 64.75 94.36 70.18 C95.93 71.74 97.5 73.29 99.07 74.84 C105.5 81.24 111.36 87.89 117 95 C117.87 96.04 118.75 97.07 119.64 98.1 C126.18 105.71 131.92 113.78 137.62 122.02 C139.72 125.04 141.86 128.02 144 131 C143.67 131.66 143.34 132.32 143 133 C142.52 132.5 142.03 132.01 141.53 131.5 C140.86 130.82 140.19 130.14 139.5 129.44 C138.53 128.45 138.53 128.45 137.53 127.43 C134.8 124.8 131.96 122.33 129.09 119.84 C125.8 116.95 122.62 113.94 119.44 110.94 C118.03 109.61 116.63 108.29 115.22 106.97 C114.51 106.31 113.81 105.64 113.09 104.96 C109.88 101.94 106.66 98.94 103.44 95.94 C102.2 94.78 100.96 93.63 99.72 92.47 C99.11 91.9 98.5 91.33 97.87 90.74 C95.97 88.97 94.08 87.2 92.18 85.43 C84.68 78.42 77.16 71.44 69.61 64.48 C67.95 62.96 66.3 61.43 64.65 59.9 C59 54.67 53.33 49.48 47.59 44.34 C44.54 41.59 41.52 38.79 38.5 36 C33.88 31.72 29.22 27.48 24.53 23.28 C21.16 20.24 17.82 17.18 14.49 14.11 C12.01 11.83 9.53 9.57 7.02 7.34 C6.1 6.52 5.19 5.71 4.25 4.88 C3.02 3.79 3.02 3.79 1.77 2.68 C1.18 2.13 0.6 1.57 0 1 C0 0.67 0 0.34 0 0 Z " fill="#F8F8F7" transform="translate(582,216)"/>
<path d="M0 0 C1.46 2.7 2.37 5.12 2.96 8.13 C3.13 8.94 3.29 9.75 3.45 10.58 C3.61 11.42 3.77 12.26 3.94 13.12 C4.09 13.91 4.25 14.7 4.41 15.5 C5.51 21.12 6.47 26.75 7.39 32.4 C9.05 42.46 10.88 52.48 12.75 62.5 C12.92 63.43 13.1 64.36 13.28 65.32 C18.09 91.08 23.34 116.72 29.34 142.23 C31.18 150.11 32.8 157.99 34 166 C30.94 163.12 29.21 159.92 27.38 156.19 C26.86 155.15 26.86 155.15 26.34 154.09 C3.66 107.37 -8.18 51.75 0 0 Z " fill="#F6F6F6" transform="translate(779,1389)"/>
<path d="M0 0 C0.66 0 1.32 0 2 0 C6.87 58.24 -3.55 114.69 -32 166 C-33.31 163.39 -32.79 162.41 -32.1 159.59 C-31.87 158.64 -31.65 157.69 -31.41 156.72 C-31.15 155.65 -30.89 154.59 -30.62 153.5 C-30.06 151.13 -29.5 148.76 -28.95 146.38 C-28.72 145.41 -28.72 145.41 -28.48 144.42 C-22.6 119.22 -17.43 93.86 -12.81 68.41 C-11.36 60.48 -9.88 52.55 -8.4 44.62 C-7.89 41.92 -7.39 39.21 -6.89 36.51 C-4.63 24.33 -2.33 12.16 0 0 Z " fill="#F6F6F6" transform="translate(1221,1390)"/>
<path d="M0 0 C0.33 0 0.66 0 1 0 C0.18 10.88 -1.38 21.66 -2.84 32.46 C-3.18 34.94 -3.51 37.42 -3.84 39.9 C-3.94 40.64 -4.05 41.37 -4.15 42.13 C-5.73 53.98 -6.18 65.77 -6.32 77.7 C-6.34 79.28 -6.36 80.85 -6.38 82.43 C-6.43 86.53 -6.48 90.63 -6.53 94.74 C-6.58 98.94 -6.64 103.14 -6.69 107.35 C-6.8 115.57 -6.9 123.78 -7 132 C-18.04 115.44 -19.47 94.19 -19.44 74.88 C-19.44 73.77 -19.44 73.77 -19.44 72.64 C-19.39 57.56 -17.26 43.48 -13 29 C-12.57 27.49 -12.57 27.49 -12.13 25.95 C-9.73 18.1 -5.94 5.94 0 0 Z " fill="#F6F6F6" transform="translate(653,613)"/>
<path d="M0 0 C12.76 0.58 22.66 9.15 30.94 18.1 C36.33 24.47 40.72 31.57 45.17 38.6 C52.24 49.72 59.87 60.89 71.92 66.89 C74.13 68.07 76.03 69.45 78 71 C69.66 73.78 61.62 72.16 53.82 68.55 C49.45 66.15 45.72 63.31 42 60 C41.42 59.51 40.84 59.03 40.24 58.52 C30.79 49.95 24.7 37.65 18.69 26.58 C13.43 17 7.36 8.11 0 0 Z " fill="#F8F8F8" transform="translate(866,796)"/>
<path d="M0 0 C12.31 10.25 16.5 34.45 19 49 C19.31 50.57 19.31 50.57 19.62 52.18 C24.25 78.46 21.13 107.65 10 132 C9.34 132.33 8.68 132.66 8 133 C8 132.29 8.01 131.57 8.01 130.84 C8.05 124 8.08 117.17 8.1 110.33 C8.11 106.82 8.13 103.31 8.15 99.8 C8.26 82.77 7.9 65.94 6 49 C5.83 47.43 5.66 45.86 5.49 44.29 C5.1 40.76 4.69 37.24 4.25 33.72 C3.99 31.64 3.75 29.56 3.5 27.49 C2.71 20.93 1.82 14.44 0.38 7.99 C-0.13 5.31 -0.14 2.72 0 0 Z " fill="#F7F7F7" transform="translate(1347,612)"/>
<path d="M0 0 C-0.46 0.46 -0.92 0.93 -1.4 1.41 C-10.06 10.58 -16.05 21.55 -22.27 32.45 C-26.42 39.72 -30.53 46.62 -36 53 C-36.76 54.03 -37.53 55.06 -38.31 56.12 C-45.97 64.32 -56.22 70.58 -67.52 71.12 C-72.68 71.25 -72.68 71.25 -75 71 C-75.66 70.34 -76.32 69.68 -77 69 C-76.32 68.67 -75.64 68.34 -74.95 68 C-58.44 59.57 -49.79 46.09 -40.19 30.92 C-37.08 26.03 -33.66 21.49 -30 17 C-29.26 15.99 -28.52 14.98 -27.75 13.94 C-21.95 7.04 -9.44 -3.15 0 0 Z " fill="#F9F9F9" transform="translate(1135,797)"/>
<path d="M0 0 C2.39 2.39 2.35 3.03 2.44 6.31 C2.13 18.97 -4.95 29.86 -13.59 38.62 C-28.67 52.18 -49.17 59.16 -69.27 59.27 C-72.17 58.98 -74.36 58.21 -77 57 C-73.7 54.3 -70.13 52.51 -66.31 50.69 C-58.82 47.01 -51.49 43.05 -44.19 39 C-43.15 38.43 -42.11 37.86 -41.05 37.28 C-24.6 28.08 -9.57 16.51 0 0 Z " fill="#F8F8F7" transform="translate(1508,385)"/>
<path d="M0 0 C2.69 3.3 5.16 6.67 7.56 10.19 C18.7 25.43 34.94 33.88 51.11 42.83 C53.69 44.26 56.25 45.72 58.8 47.2 C65.07 50.85 71.29 54.22 78 57 C74.61 60.39 70.83 60.2 66.19 60.31 C46.41 60.09 26.9 50.43 12.69 37.12 C8.62 32.88 5.7 28.2 3 23 C2.66 22.38 2.32 21.75 1.96 21.11 C-1.1 14.55 -0.25 7.07 0 0 Z " fill="#F9F9F8" transform="translate(492,384)"/>
<path d="M0 0 C16.96 15.72 22.78 42.73 28.17 64.29 C30.75 74.43 33.89 84.33 37.24 94.24 C37.62 95.36 37.99 96.48 38.38 97.63 C38.71 98.62 39.05 99.61 39.4 100.63 C40 103 40 103 39 105 C23.05 90.54 15.05 69.33 10.06 48.81 C9.81 47.79 9.56 46.76 9.3 45.71 C5.62 30.58 2.47 15.37 0 0 Z " fill="#F7F7F7" transform="translate(1402,638)"/>
<path d="M0 0 C1.26 3.77 0.64 5.82 -0.15 9.71 C-0.29 10.38 -0.42 11.05 -0.56 11.75 C-1.01 13.96 -1.47 16.17 -1.94 18.38 C-2.1 19.13 -2.25 19.89 -2.42 20.67 C-15.78 84.38 -15.78 84.38 -36 103 C-36.66 103 -37.32 103 -38 103 C-36.67 96.53 -34.9 90.38 -32.81 84.12 C-30.03 75.62 -27.67 67.06 -25.5 58.38 C-20.33 37.95 -14.31 16.1 0 0 Z " fill="#F7F7F7" transform="translate(598,639)"/>
<path d="M0 0 C-0.92 10.84 -6.32 19.87 -14.25 27.19 C-21.85 33.37 -30.04 36.3 -39.77 36.23 C-42.94 35.9 -45.31 34.65 -48 33 C-44.14 28.74 -39.76 25.57 -35.09 22.24 C-32.4 20.29 -29.77 18.28 -27.14 16.23 C-6.43 0 -6.43 0 0 0 Z " fill="#F7F7F7" transform="translate(1533,301)"/>
<path d="M0 0 C5.27 1.26 9.34 3.16 13.81 6.25 C14.45 6.68 15.08 7.11 15.73 7.55 C21.87 11.78 27.74 16.35 33.57 21 C38.54 24.95 43.66 28.56 49 32 C45.62 35.38 41.53 36.14 36.88 36.44 C26.5 36.14 17.17 30.12 10 23 C4.37 16.08 0.91 8.93 0 0 Z " fill="#F8F8F8" transform="translate(468,301)"/>
<path d="M0 0 C0.99 0 1.98 0 3 0 C2.52 5.58 1.58 10.61 0 16 C-0.73 19.66 -1.38 23.32 -2 27 C-2.33 27 -2.66 27 -3 27 C-3.43 17.46 -2.33 9.23 0 0 Z " fill="#3D3D3C" transform="translate(497,959)"/>
<path d="M0 0 C3 2 3 2 3.68 3.77 C4.06 6.45 4.09 9.04 4.06 11.75 C4.05 12.73 4.04 13.72 4.04 14.73 C4.02 15.48 4.01 16.23 4 17 C3.34 17 2.68 17 2 17 C-1.63 5.48 -1.63 5.48 0 0 Z " fill="#2C2C2B" transform="translate(371,1229)"/>
<path d="M0 0 C0.66 0 1.32 0 2 0 C2 4.29 2 8.58 2 13 C0.02 13.33 -1.96 13.66 -4 14 C-3.01 9.16 -2.04 4.52 0 0 Z " fill="#2E2E2D" transform="translate(516,988)"/>
<path d="M0 0 C1.32 0.33 2.64 0.66 4 1 C3.72 2.44 3.42 3.88 3.12 5.31 C2.96 6.11 2.8 6.91 2.63 7.74 C2 10 2 10 0 13 C-0.66 12.67 -1.32 12.34 -2 12 C-1.86 10.56 -1.71 9.12 -1.56 7.69 C-1.48 6.89 -1.4 6.09 -1.32 5.26 C-1 3 -1 3 0 0 Z " fill="#2C2C2B" transform="translate(500,947)"/>
<path d="M0 0 C2.3 3.8 2.88 7.94 3.62 12.25 C3.76 13 3.89 13.74 4.03 14.51 C4.36 16.34 4.68 18.17 5 20 C1.9 18.45 1.52 15.97 0.25 12.81 C-0.22 11.68 -0.69 10.56 -1.17 9.39 C-2.13 5.48 -1.61 3.63 0 0 Z " fill="#444443" transform="translate(1604,993)"/>
<path d="M0 0 C1.27 3.65 0.76 6.49 0.06 10.25 C-0.13 11.33 -0.33 12.41 -0.53 13.52 C-0.68 14.34 -0.84 15.16 -1 16 C-2.83 12.86 -3.3 10.49 -3.31 6.88 C-3.33 6.01 -3.35 5.14 -3.36 4.24 C-3.24 3.5 -3.12 2.76 -3 2 C-2.01 1.34 -1.02 0.68 0 0 Z " fill="#2F2F2D" transform="translate(1263,1108)"/>
<path d="M0 0 C0.99 0.33 1.98 0.66 3 1 C2.34 4.3 1.68 7.6 1 11 C0.34 11 -0.32 11 -1 11 C-1.33 7.7 -1.66 4.4 -2 1 C-1.34 0.67 -0.68 0.34 0 0 Z " fill="#353533" transform="translate(1275,1576)"/>
<path d="M0 0 C-4.62 2.64 -9.24 5.28 -14 8 C-15.32 7.01 -16.64 6.02 -18 5 C-15.38 3.97 -12.75 2.95 -10.12 1.94 C-9.38 1.64 -8.63 1.35 -7.86 1.04 C-2.23 -1.11 -2.23 -1.11 0 0 Z " fill="#3E3E3D" transform="translate(1281,451)"/>
<path d="M0 0 C0.33 0 0.66 0 1 0 C1 6.27 1 12.54 1 19 C0.01 19 -0.98 19 -2 19 C-1.38 12.66 -0.71 6.33 0 0 Z " fill="#424240" transform="translate(1327,1262)"/>
<path d="M0 0 C0.66 0 1.32 0 2 0 C1.31 5.42 0.24 10.68 -1 16 C-1.33 16 -1.66 16 -2 16 C-2.2 10.26 -2.27 5.39 0 0 Z " fill="#3C3C3A" transform="translate(1064,779)"/>
<path d="M0 0 C0.63 1.85 0.63 1.85 1 4 C-2.22 7.81 -6.14 10.86 -10 14 C-8.44 10.48 -6.31 7.73 -3.88 4.75 C-3.15 3.86 -2.43 2.97 -1.68 2.05 C-0.85 1.03 -0.85 1.03 0 0 Z " fill="#363635" transform="translate(1145,1447)"/>
<path d="M0 0 C0.66 0.33 1.32 0.66 2 1 C1.38 2.32 0.76 3.63 0.12 4.94 C-0.22 5.67 -0.57 6.4 -0.93 7.15 C-2 9 -2 9 -4 10 C-4.25 7.25 -4.25 7.25 -4 4 C-2 1.62 -2 1.62 0 0 Z " fill="#31312F" transform="translate(1530,1271)"/>
<path d="M0 0 C2.59 2.59 2.37 4.03 2.62 7.62 C2.7 8.63 2.77 9.63 2.85 10.66 C2.9 11.43 2.95 12.21 3 13 C2.01 13 1.02 13 0 13 C0 8.71 0 4.42 0 0 Z " fill="#454543" transform="translate(605,815)"/>
<path d="M0 0 C0.33 0 0.66 0 1 0 C0.67 4.29 0.34 8.58 0 13 C-0.99 12.01 -1.98 11.02 -3 10 C-2.89 7.77 -2.89 7.77 -2.25 5.38 C-2.05 4.58 -1.85 3.78 -1.64 2.96 C-1 1 -1 1 0 0 Z " fill="#E0E0DF" transform="translate(491,490)"/>
<path d="M0 0 C0.66 0 1.32 0 2 0 C3.26 2.91 4 4.8 4 8 C2.68 8 1.36 8 0 8 C0 5.36 0 2.72 0 0 Z " fill="#282927" transform="translate(1482,986)"/>
<path d="M0 0 C0.66 0.33 1.32 0.66 2 1 C1.67 1.99 1.34 2.98 1 4 C1.66 4.33 2.32 4.66 3 5 C3 5.66 3 6.32 3 7 C0.69 6.34 -1.62 5.68 -4 5 C-2.68 3.35 -1.36 1.7 0 0 Z " fill="#393938" transform="translate(467,793)"/>
<path d="M0 0 C3.3 0 6.6 0 10 0 C10 0.66 10 1.32 10 2 C7.69 2.66 5.38 3.32 3 4 C3 3.01 3 2.02 3 1 C2.01 0.67 1.02 0.34 0 0 Z " fill="#3C3C3B" transform="translate(609,544)"/>
<path d="M0 0 C1.47 3.81 0.43 6.29 -1 10 C-1.66 10 -2.32 10 -3 10 C-3 8.02 -3 6.04 -3 4 C-2.01 3.67 -1.02 3.34 0 3 C0 2.01 0 1.02 0 0 Z " fill="#424242" transform="translate(1631,1236)"/>
<path d="M0 0 C-2.96 1.23 -5.86 2.35 -9 3 C-11.56 1.69 -11.56 1.69 -13 0 C-11.58 -0.2 -10.17 -0.38 -8.75 -0.56 C-7.96 -0.67 -7.17 -0.77 -6.36 -0.88 C-3.99 -1 -2.25 -0.7 0 0 Z " fill="#474746" transform="translate(1180,903)"/>
<path d="M0 0 C1.32 0.33 2.64 0.66 4 1 C2.61 4.37 1.02 5.99 -2 8 C-1.34 5.36 -0.68 2.72 0 0 Z " fill="#383837" transform="translate(504,590)"/>
<path d="M0 0 C0.66 0 1.32 0 2 0 C2.93 3.01 3.04 3.87 2 7 C1.01 6.67 0.02 6.34 -1 6 C-1.04 4.33 -1.04 2.67 -1 1 C-0.67 0.67 -0.34 0.34 0 0 Z " fill="#3C3C3B" transform="translate(732,1582)"/>
<path d="M0 0 C0.99 0 1.98 0 3 0 C2.55 1.46 2.09 2.92 1.62 4.38 C1.37 5.19 1.11 6 0.85 6.84 C0 9 0 9 -2 11 C-1 3.57 -1 3.57 0 0 Z " fill="#3E3E3C" transform="translate(395,1001)"/>
<path d="M0 0 C4 4 4 4 4 6 C3.34 6 2.68 6 2 6 C2 8.64 2 11.28 2 14 C1.67 14 1.34 14 1 14 C0.67 9.38 0.34 4.76 0 0 Z " fill="#D2D2D2" transform="translate(471,1232)"/>
<path d="M0 0 C0.66 0.33 1.32 0.66 2 1 C2 1.99 2 2.98 2 4 C-2.45 5.49 -2.45 5.49 -7 7 C-4.67 4.67 -2.33 2.33 0 0 Z " fill="#DCDCDA" transform="translate(1069,912)"/>
<path d="M0 0 C2.97 0.33 5.94 0.66 9 1 C5.01 3 3.3 3.2 -1 3 C-0.67 2.01 -0.34 1.02 0 0 Z " fill="#2D2D2C" transform="translate(571,335)"/>
<path d="M0 0 C0.99 0 1.98 0 3 0 C2.69 1.94 2.69 1.94 2 4 C1.01 4.33 0.02 4.66 -1 5 C-1 1 -1 1 0 0 Z " fill="#262626" transform="translate(1450,1138)"/>
<path d="M0 0 C0.33 0 0.66 0 1 0 C1 3.3 1 6.6 1 10 C0.01 9.34 -0.98 8.68 -2 8 C-1.48 5.24 -0.89 2.67 0 0 Z " fill="#E7E7E5" transform="translate(608,1178)"/>
</svg>
